name: Systemhz Regular 16x16
spacing: character-cell
cell-size: 16 16
encoding: ibm-943
converter: monobit v0.32
source-name: SYSTEMHZ.FNT
source-url: https://dl.winworldpc.com/Digital%20Research%20DR-DOS%206.0%20[Japanese]%20(3.5-1.44mb).7z
source-format: binary
history:
    load --format=binary --offset=9472 --cell=16x16


# [　] IDEOGRAPHIC SPACE
u+3000:
0x8140:
    ................
    ................
    ................
    ................
    ................
    ................
    ................
    ................
    ................
    ................
    ................
    ................
    ................
    ................
    ................
    ................


# [、] IDEOGRAPHIC COMMA
u+3001:
0x8141:
    ................
    ................
    ................
    ................
    ................
    ................
    ................
    ................
    ................
    ................
    ................
    ................
    ................
    ..@.............
    ...@............
    ...@............


# [。] IDEOGRAPHIC FULL STOP
u+3002:
0x8142:
    ................
    ................
    ................
    ................
    ................
    ................
    ................
    ................
    ................
    ................
    ................
    ................
    ..@@............
    .@..@...........
    .@..@...........
    ..@@............


# [，] FULLWIDTH COMMA
u+ff0c:
0x8143:
    ................
    ................
    ................
    ................
    ................
    ................
    ................
    ................
    ................
    ................
    ................
    ................
    ..@@............
    ..@@............
    ...@............
    ..@.............


# [．] FULLWIDTH FULL STOP
u+ff0e:
0x8144:
    ................
    ................
    ................
    ................
    ................
    ................
    ................
    ................
    ................
    ................
    ................
    ................
    ..@@............
    ..@@............
    ................
    ................


# [・] KATAKANA MIDDLE DOT
u+30fb:
0x8145:
    ................
    ................
    ................
    ................
    ................
    ................
    ................
    .......@@.......
    .......@@.......
    ................
    ................
    ................
    ................
    ................
    ................
    ................


# [：] FULLWIDTH COLON
u+ff1a:
0x8146:
    ................
    ................
    ................
    ................
    .......@@.......
    .......@@.......
    ................
    ................
    ................
    ................
    ................
    ................
    .......@@.......
    .......@@.......
    ................
    ................


# [；] FULLWIDTH SEMICOLON
u+ff1b:
0x8147:
    ................
    ................
    ................
    ................
    .......@@.......
    .......@@.......
    ................
    ................
    ................
    ................
    ................
    ................
    .......@@.......
    .......@@.......
    ........@.......
    .......@........


# [？] FULLWIDTH QUESTION MARK
u+ff1f:
0x8148:
    ................
    ......@@@@......
    .....@....@.....
    ....@......@....
    ....@@.....@....
    .....@.....@....
    ..........@.....
    .........@......
    ........@.......
    .......@........
    .......@........
    ................
    ................
    ......@@........
    ......@@........
    ................


# [！] FULLWIDTH EXCLAMATION MARK
u+ff01:
0x8149:
    ................
    ........@.......
    ........@.......
    ........@.......
    ........@.......
    ........@.......
    ........@.......
    ........@.......
    ........@.......
    ........@.......
    ........@.......
    ................
    ................
    .......@@.......
    .......@@.......
    ................


# [゛] KATAKANA-HIRAGANA VOICED SOUND MARK
u+309b:
0x814a:
    ...@............
    .@..@...........
    ..@.............
    ................
    ................
    ................
    ................
    ................
    ................
    ................
    ................
    ................
    ................
    ................
    ................
    ................


# [゜] KATAKANA-HIRAGANA SEMI-VOICED SOUND MARK
u+309c:
0x814b:
    ................
    ...@@...........
    ..@..@..........
    ..@..@..........
    ...@@...........
    ................
    ................
    ................
    ................
    ................
    ................
    ................
    ................
    ................
    ................
    ................


# [´] ACUTE ACCENT
u+00b4:
0x814c:
    .........@......
    ........@.......
    .......@........
    ................
    ................
    ................
    ................
    ................
    ................
    ................
    ................
    ................
    ................
    ................
    ................
    ................


# [｀] FULLWIDTH GRAVE ACCENT
u+ff40:
0x814d:
    .......@........
    ........@.......
    .........@......
    ................
    ................
    ................
    ................
    ................
    ................
    ................
    ................
    ................
    ................
    ................
    ................
    ................


# [¨] DIAERESIS
u+00a8:
0x814e:
    ....@@....@@....
    ....@@....@@....
    ................
    ................
    ................
    ................
    ................
    ................
    ................
    ................
    ................
    ................
    ................
    ................
    ................
    ................


# [＾] FULLWIDTH CIRCUMFLEX ACCENT
u+ff3e:
0x814f:
    ........@.......
    .......@.@......
    ......@...@.....
    ................
    ................
    ................
    ................
    ................
    ................
    ................
    ................
    ................
    ................
    ................
    ................
    ................


# [￣] FULLWIDTH MACRON
u+ffe3:
0x8150:
    .@@@@@@@@@@@@@@@
    ................
    ................
    ................
    ................
    ................
    ................
    ................
    ................
    ................
    ................
    ................
    ................
    ................
    ................
    ................


# [＿] FULLWIDTH LOW LINE
u+ff3f:
0x8151:
    ................
    ................
    ................
    ................
    ................
    ................
    ................
    ................
    ................
    ................
    ................
    ................
    ................
    ................
    ................
    .@@@@@@@@@@@@@@@


# [ヽ] KATAKANA ITERATION MARK
u+30fd:
0x8152:
    ................
    ................
    ................
    ................
    ................
    .....@..........
    ......@.........
    .......@@.......
    ........@@......
    .........@......
    .........@......
    ................
    ................
    ................
    ................
    ................


# [ヾ] KATAKANA VOICED ITERATION MARK
u+30fe:
0x8153:
    ................
    ................
    ..........@.....
    ........@..@....
    .........@......
    .....@..........
    ......@.........
    .......@@.......
    ........@@......
    .........@......
    .........@......
    ................
    ................
    ................
    ................
    ................


# [ゝ] HIRAGANA ITERATION MARK
u+309d:
0x8154:
    ................
    ................
    ................
    ................
    .....@..........
    .....@..........
    ......@.........
    .......@........
    ........@@......
    .......@@@@.....
    ......@...@.....
    ................
    ................
    ................
    ................
    ................


# [ゞ] HIRAGANA VOICED ITERATION MARK
u+309e:
0x8155:
    ................
    ................
    ..........@.....
    ........@..@....
    .....@...@......
    .....@..........
    ......@.........
    .......@........
    ........@@......
    .......@@@@.....
    ......@...@.....
    ................
    ................
    ................
    ................
    ................


# [〃] DITTO MARK
u+3003:
0x8156:
    ................
    ................
    ................
    ................
    .......@...@....
    .......@...@....
    .......@...@....
    ......@...@.....
    ......@...@.....
    ......@...@.....
    .....@...@......
    .....@...@......
    ................
    ................
    ................
    ................


# [仝] CJK UNIFIED IDEOGRAPH-4EDD
u+4edd:
0x8157:
    ........@.......
    ........@@......
    .......@.@......
    ......@...@.....
    .....@.....@....
    ....@.......@...
    ...@.........@..
    .@@........@..@@
    ....@@@@@@@@@...
    ........@.......
    ........@.......
    ........@.......
    ........@.......
    ........@.....@.
    .@@@@@@@@@@@@@@@
    ................


# [々] IDEOGRAPHIC ITERATION MARK
u+3005:
0x8158:
    ................
    ................
    ......@.........
    ......@@........
    ......@.....@...
    .....@@@@@@@@@..
    .....@......@...
    ....@.......@...
    ...@.......@....
    ..@........@....
    ......@@..@.....
    ........@@......
    .........@@.....
    ..........@.....
    ................
    ................


# [〆] IDEOGRAPHIC CLOSING MARK
u+3006:
0x8159:
    ................
    .............@@.
    ..............@@
    .............@..
    ............@...
    .....@@@...@....
    ....@...@.@.....
    ...@.....@@.....
    ...@....@..@....
    ...@...@....@...
    ..@...@.....@...
    ..@..@..........
    ..@.@...........
    ..@@............
    .@@.............
    ................


# [〇] IDEOGRAPHIC NUMBER ZERO
u+3007:
0x815a:
    ................
    ......@@@@@.....
    ....@@.....@@...
    ...@.........@..
    ..@...........@.
    ..@...........@.
    .@.............@
    .@.............@
    .@.............@
    .@.............@
    ..@...........@.
    ..@...........@.
    ...@.........@..
    ....@@.....@@...
    ......@@@@@.....
    ................


# [ー] KATAKANA-HIRAGANA PROLONGED SOUND MARK
u+30fc:
0x815b:
    ................
    ................
    ................
    ................
    ................
    ................
    ................
    ..@.....@@@@@@..
    ...@@@@@......@.
    ................
    ................
    ................
    ................
    ................
    ................
    ................


# [―] HORIZONTAL BAR
u+2015:
0x815c:
    ................
    ................
    ................
    ................
    ................
    ................
    ................
    .@@@@@@@@@@@@@@@
    ................
    ................
    ................
    ................
    ................
    ................
    ................
    ................


# [‐] HYPHEN
u+2010:
0x815d:
    ................
    ................
    ................
    ................
    ................
    ................
    ................
    ......@@@@......
    ................
    ................
    ................
    ................
    ................
    ................
    ................
    ................


# [／] FULLWIDTH SOLIDUS
u+ff0f:
0x815e:
    ...............@
    ..............@.
    .............@..
    ............@...
    ...........@....
    ..........@.....
    .........@......
    ........@.......
    .......@........
    ......@.........
    .....@..........
    ....@...........
    ...@............
    ..@.............
    .@..............
    ................


# [＼] FULLWIDTH REVERSE SOLIDUS
u+ff3c:
0x815f:
    .@..............
    ..@.............
    ...@............
    ....@...........
    .....@..........
    ......@.........
    .......@........
    ........@.......
    .........@......
    ..........@.....
    ...........@....
    ............@...
    .............@..
    ..............@.
    ...............@
    ................


# [～] FULLWIDTH TILDE
u+ff5e:
0x8160:
    ................
    ................
    ................
    ................
    ................
    ................
    ...@@@..........
    ..@...@@.......@
    .@......@@....@.
    ..........@@@@..
    ................
    ................
    ................
    ................
    ................
    ................


# [∥] PARALLEL TO
u+2225:
0x8161:
    ......@..@......
    ......@..@......
    ......@..@......
    ......@..@......
    ......@..@......
    ......@..@......
    ......@..@......
    ......@..@......
    ......@..@......
    ......@..@......
    ......@..@......
    ......@..@......
    ......@..@......
    ......@..@......
    ......@..@......
    ......@..@......


# [｜] FULLWIDTH VERTICAL LINE
u+ff5c:
0x8162:
    ........@.......
    ........@.......
    ........@.......
    ........@.......
    ........@.......
    ........@.......
    ........@.......
    ........@.......
    ........@.......
    ........@.......
    ........@.......
    ........@.......
    ........@.......
    ........@.......
    ........@.......
    ........@.......


# […] HORIZONTAL ELLIPSIS
u+2026:
0x8163:
    ................
    ................
    ................
    ................
    ................
    ................
    ................
    ..@@...@@...@@..
    ..@@...@@...@@..
    ................
    ................
    ................
    ................
    ................
    ................
    ................


# [‥] TWO DOT LEADER
u+2025:
0x8164:
    ................
    ................
    ................
    ................
    ................
    ................
    ................
    ....@@.....@@...
    ....@@.....@@...
    ................
    ................
    ................
    ................
    ................
    ................
    ................


# [‘] LEFT SINGLE QUOTATION MARK
u+2018:
0x8165:
    ..............@.
    .............@..
    .............@@.
    .............@@.
    ................
    ................
    ................
    ................
    ................
    ................
    ................
    ................
    ................
    ................
    ................
    ................


# [’] RIGHT SINGLE QUOTATION MARK
u+2019:
0x8166:
    ..@@............
    ..@@............
    ...@............
    ..@.............
    ................
    ................
    ................
    ................
    ................
    ................
    ................
    ................
    ................
    ................
    ................
    ................


# [“] LEFT DOUBLE QUOTATION MARK
u+201c:
0x8167:
    ...........@..@.
    ..........@..@..
    ..........@@.@@.
    ..........@@.@@.
    ................
    ................
    ................
    ................
    ................
    ................
    ................
    ................
    ................
    ................
    ................
    ................


# [”] RIGHT DOUBLE QUOTATION MARK
u+201d:
0x8168:
    ..@@.@@.........
    ..@@.@@.........
    ...@..@.........
    ..@..@..........
    ................
    ................
    ................
    ................
    ................
    ................
    ................
    ................
    ................
    ................
    ................
    ................


# [（] FULLWIDTH LEFT PARENTHESIS
u+ff08:
0x8169:
    ..............@.
    .............@..
    ............@...
    ...........@....
    ...........@....
    ..........@.....
    ..........@.....
    ..........@.....
    ..........@.....
    ..........@.....
    ..........@.....
    ...........@....
    ...........@....
    ............@...
    .............@..
    ..............@.


# [）] FULLWIDTH RIGHT PARENTHESIS
u+ff09:
0x816a:
    ..@.............
    ...@............
    ....@...........
    .....@..........
    .....@..........
    ......@.........
    ......@.........
    ......@.........
    ......@.........
    ......@.........
    ......@.........
    .....@..........
    .....@..........
    ....@...........
    ...@............
    ..@.............


# [〔] LEFT TORTOISE SHELL BRACKET
u+3014:
0x816b:
    ..............@.
    ............@@..
    ..........@@....
    ..........@.....
    ..........@.....
    ..........@.....
    ..........@.....
    ..........@.....
    ..........@.....
    ..........@.....
    ..........@.....
    ..........@.....
    ..........@.....
    ..........@@....
    ............@@..
    ..............@.


# [〕] RIGHT TORTOISE SHELL BRACKET
u+3015:
0x816c:
    ..@.............
    ...@@...........
    .....@@.........
    ......@.........
    ......@.........
    ......@.........
    ......@.........
    ......@.........
    ......@.........
    ......@.........
    ......@.........
    ......@.........
    ......@.........
    .....@@.........
    ...@@...........
    ..@.............


# [［] FULLWIDTH LEFT SQUARE BRACKET
u+ff3b:
0x816d:
    ..........@@@@@.
    ..........@.....
    ..........@.....
    ..........@.....
    ..........@.....
    ..........@.....
    ..........@.....
    ..........@.....
    ..........@.....
    ..........@.....
    ..........@.....
    ..........@.....
    ..........@.....
    ..........@.....
    ..........@.....
    ..........@@@@@.


# [］] FULLWIDTH RIGHT SQUARE BRACKET
u+ff3d:
0x816e:
    ..@@@@@.........
    ......@.........
    ......@.........
    ......@.........
    ......@.........
    ......@.........
    ......@.........
    ......@.........
    ......@.........
    ......@.........
    ......@.........
    ......@.........
    ......@.........
    ......@.........
    ......@.........
    ..@@@@@.........


# [｛] FULLWIDTH LEFT CURLY BRACKET
u+ff5b:
0x816f:
    .............@@.
    ............@...
    ............@...
    ............@...
    ............@...
    ............@...
    ............@...
    ...........@....
    ............@...
    ............@...
    ............@...
    ............@...
    ............@...
    ............@...
    ............@...
    .............@@.


# [｝] FULLWIDTH RIGHT CURLY BRACKET
u+ff5d:
0x8170:
    ..@@............
    ....@...........
    ....@...........
    ....@...........
    ....@...........
    ....@...........
    ....@...........
    .....@..........
    ....@...........
    ....@...........
    ....@...........
    ....@...........
    ....@...........
    ....@...........
    ....@...........
    ..@@............


# [〈] LEFT ANGLE BRACKET
u+3008:
0x8171:
    ..............@.
    .............@..
    .............@..
    ............@...
    ............@...
    ...........@....
    ...........@....
    ..........@.....
    ..........@.....
    ...........@....
    ...........@....
    ............@...
    ............@...
    .............@..
    .............@..
    ..............@.


# [〉] RIGHT ANGLE BRACKET
u+3009:
0x8172:
    ..@.............
    ...@............
    ...@............
    ....@...........
    ....@...........
    .....@..........
    .....@..........
    ......@.........
    ......@.........
    .....@..........
    .....@..........
    ....@...........
    ....@...........
    ...@............
    ...@............
    ..@.............


# [《] LEFT DOUBLE ANGLE BRACKET
u+300a:
0x8173:
    ...........@..@.
    ..........@..@..
    ..........@..@..
    .........@..@...
    .........@..@...
    ........@..@....
    ........@..@....
    .......@..@.....
    .......@..@.....
    ........@..@....
    ........@..@....
    .........@..@...
    .........@..@...
    ..........@..@..
    ..........@..@..
    ...........@..@.


# [》] RIGHT DOUBLE ANGLE BRACKET
u+300b:
0x8174:
    ..@..@..........
    ...@..@.........
    ...@..@.........
    ....@..@........
    ....@..@........
    .....@..@.......
    .....@..@.......
    ......@..@......
    ......@..@......
    .....@..@.......
    .....@..@.......
    ....@..@........
    ....@..@........
    ...@..@.........
    ...@..@.........
    ..@..@..........


# [「] LEFT CORNER BRACKET
u+300c:
0x8175:
    ..........@@@@@.
    ..........@.....
    ..........@.....
    ..........@.....
    ..........@.....
    ..........@.....
    ..........@.....
    ..........@.....
    ..........@.....
    ..........@.....
    ..........@.....
    ..........@.....
    ..........@.....
    ................
    ................
    ................


# [」] RIGHT CORNER BRACKET
u+300d:
0x8176:
    ................
    ................
    ................
    ......@.........
    ......@.........
    ......@.........
    ......@.........
    ......@.........
    ......@.........
    ......@.........
    ......@.........
    ......@.........
    ......@.........
    ......@.........
    ......@.........
    ..@@@@@.........


# [『] LEFT WHITE CORNER BRACKET
u+300e:
0x8177:
    .........@@@@@@.
    .........@....@.
    .........@.@@@@.
    .........@.@....
    .........@.@....
    .........@.@....
    .........@.@....
    .........@.@....
    .........@.@....
    .........@.@....
    .........@.@....
    .........@.@....
    .........@.@....
    .........@@@....
    ................
    ................


# [』] RIGHT WHITE CORNER BRACKET
u+300f:
0x8178:
    ................
    ................
    .....@@@........
    .....@.@........
    .....@.@........
    .....@.@........
    .....@.@........
    .....@.@........
    .....@.@........
    .....@.@........
    .....@.@........
    .....@.@........
    .....@.@........
    ..@@@@.@........
    ..@....@........
    ..@@@@@@........


# [【] LEFT BLACK LENTICULAR BRACKET
u+3010:
0x8179:
    ...........@@@@.
    ...........@@@..
    ...........@@@..
    ...........@@...
    ...........@@...
    ...........@@...
    ...........@....
    ...........@....
    ...........@....
    ...........@....
    ...........@@...
    ...........@@...
    ...........@@...
    ...........@@@..
    ...........@@@..
    ...........@@@@.


# [】] RIGHT BLACK LENTICULAR BRACKET
u+3011:
0x817a:
    ..@@@@..........
    ...@@@..........
    ...@@@..........
    ....@@..........
    ....@@..........
    ....@@..........
    .....@..........
    .....@..........
    .....@..........
    .....@..........
    ....@@..........
    ....@@..........
    ....@@..........
    ...@@@..........
    ...@@@..........
    ..@@@@..........


# [＋] FULLWIDTH PLUS SIGN
u+ff0b:
0x817b:
    ................
    ................
    ........@.......
    ........@.......
    ........@.......
    ........@.......
    ........@.......
    ...@@@@@@@@@@@..
    ........@.......
    ........@.......
    ........@.......
    ........@.......
    ........@.......
    ................
    ................
    ................


# [－] FULLWIDTH HYPHEN-MINUS
u+ff0d:
0x817c:
    ................
    ................
    ................
    ................
    ................
    ................
    ................
    ...@@@@@@@@@@@..
    ................
    ................
    ................
    ................
    ................
    ................
    ................
    ................


# [±] PLUS-MINUS SIGN
u+00b1:
0x817d:
    ................
    ........@.......
    ........@.......
    ........@.......
    ........@.......
    ........@.......
    ...@@@@@@@@@@@..
    ........@.......
    ........@.......
    ........@.......
    ........@.......
    ........@.......
    ................
    ...@@@@@@@@@@@..
    ................
    ................


# [×] MULTIPLICATION SIGN
u+00d7:
0x817e:
    ................
    ................
    ...@.........@..
    ....@.......@...
    .....@.....@....
    ......@...@.....
    .......@.@......
    ........@.......
    .......@.@......
    ......@...@.....
    .....@.....@....
    ....@.......@...
    ...@.........@..
    ................
    ................
    ................

0x817f:
    ................
    ................
    ................
    ................
    ................
    ................
    ................
    ................
    ................
    ................
    ................
    ................
    ................
    ................
    ................
    ................


# [÷] DIVISION SIGN
u+00f7:
0x8180:
    ................
    ................
    .......@@.......
    .......@@.......
    ................
    ................
    ................
    ...@@@@@@@@@@...
    ................
    ................
    ................
    .......@@.......
    .......@@.......
    ................
    ................
    ................


# [＝] FULLWIDTH EQUALS SIGN
u+ff1d:
0x8181:
    ................
    ................
    ................
    ................
    ................
    ...@@@@@@@@@@@..
    ................
    ................
    ................
    ...@@@@@@@@@@@..
    ................
    ................
    ................
    ................
    ................
    ................


# [≠] NOT EQUAL TO
u+2260:
0x8182:
    ................
    ................
    .............@..
    ............@...
    ...........@....
    ...@@@@@@@@@@@..
    .........@......
    ........@.......
    .......@........
    ...@@@@@@@@@@@..
    .....@..........
    ....@...........
    ...@............
    ................
    ................
    ................


# [＜] FULLWIDTH LESS-THAN SIGN
u+ff1c:
0x8183:
    ................
    ................
    ............@@..
    ..........@@....
    ........@@......
    ......@@........
    ....@@..........
    ..@@............
    ....@@..........
    ......@@........
    ........@@......
    ..........@@....
    ............@@..
    ................
    ................
    ................


# [＞] FULLWIDTH GREATER-THAN SIGN
u+ff1e:
0x8184:
    ................
    ................
    ...@@...........
    .....@@.........
    .......@@.......
    .........@@.....
    ...........@@...
    .............@@.
    ...........@@...
    .........@@.....
    .......@@.......
    .....@@.........
    ...@@...........
    ................
    ................
    ................


# [≦] LESS-THAN OVER EQUAL TO
u+2266:
0x8185:
    ................
    ............@@..
    .........@@@....
    .......@@.......
    ....@@@.........
    ..@@............
    ....@@@.........
    .......@@.......
    .........@@@....
    ............@@..
    ................
    ..@@@@@@@@@@@@..
    ................
    ................
    ..@@@@@@@@@@@@..
    ................


# [≧] GREATER-THAN OVER EQUAL TO
u+2267:
0x8186:
    ................
    ...@@...........
    .....@@@........
    ........@@......
    ..........@@@...
    .............@@.
    ..........@@@...
    ........@@......
    .....@@@........
    ...@@...........
    ................
    ...@@@@@@@@@@@@.
    ................
    ................
    ...@@@@@@@@@@@@.
    ................


# [∞] INFINITY
u+221e:
0x8187:
    ................
    ................
    ................
    ................
    ...@@@.....@@@..
    ..@...@...@...@.
    .@.....@.@.....@
    .@......@......@
    .@......@......@
    .@.....@.@.....@
    ..@...@...@...@.
    ...@@@.....@@@..
    ................
    ................
    ................
    ................


# [∴] THEREFORE
u+2234:
0x8188:
    ................
    ................
    ................
    .......@@.......
    .......@@.......
    ................
    ................
    ................
    ................
    ................
    ................
    ...@@......@@...
    ...@@......@@...
    ................
    ................
    ................


# [♂] MALE SIGN
u+2642:
0x8189:
    ................
    .......@@@@@@@@.
    .............@@.
    ............@.@.
    ...........@..@.
    ..........@...@.
    .........@....@.
    ...@@@@.@.....@.
    ..@....@......@.
    .@......@.......
    .@......@.......
    .@......@.......
    .@......@.......
    ..@....@........
    ...@@@@.........
    ................


# [♀] FEMALE SIGN
u+2640:
0x818a:
    ................
    .......@@@......
    ......@...@.....
    .....@.....@....
    .....@.....@....
    .....@.....@....
    ......@...@.....
    .......@@@......
    ........@.......
    ........@.......
    ...@@@@@@@@@@@..
    ........@.......
    ........@.......
    ........@.......
    ........@.......
    ................


# [°] DEGREE SIGN
u+00b0:
0x818b:
    ................
    ...@@...........
    ..@..@..........
    ..@..@..........
    ...@@...........
    ................
    ................
    ................
    ................
    ................
    ................
    ................
    ................
    ................
    ................
    ................


# [′] PRIME
u+2032:
0x818c:
    ................
    ....@...........
    ....@...........
    ...@............
    ...@............
    ................
    ................
    ................
    ................
    ................
    ................
    ................
    ................
    ................
    ................
    ................


# [″] DOUBLE PRIME
u+2033:
0x818d:
    ................
    ...@..@.........
    ...@..@.........
    ..@..@..........
    ..@..@..........
    ................
    ................
    ................
    ................
    ................
    ................
    ................
    ................
    ................
    ................
    ................


# [℃] DEGREE CELSIUS
u+2103:
0x818e:
    ................
    ..@@.....@@@@@.@
    .@..@..@@.....@@
    .@..@..@.......@
    ..@@..@........@
    ......@.........
    ......@.........
    ......@.........
    ......@.........
    ......@.........
    ......@.........
    ......@........@
    .......@.......@
    .......@@.....@.
    .........@@@@@..
    ................


# [￥] FULLWIDTH YEN SIGN
u+ffe5:
0x818f:
    ................
    ..@@@@.....@@@@.
    ....@.......@...
    .....@.....@....
    .....@.....@....
    ......@...@.....
    ...@@@@@@@@@@@..
    .......@.@......
    ........@.......
    ...@@@@@@@@@@@..
    ........@.......
    ........@.......
    ........@.......
    ........@.......
    ......@@@@@.....
    ................


# [＄] FULLWIDTH DOLLAR SIGN
u+ff04:
0x8190:
    ........@.......
    ......@@@@@.....
    .....@..@..@....
    ....@...@...@...
    ....@...@..@@...
    ....@...@.......
    .....@@.@.......
    .......@@@......
    ........@.@@....
    ........@...@...
    ....@@..@...@...
    ....@...@...@...
    ....@...@...@...
    .....@..@..@....
    ......@@@@@.....
    ........@.......


# [￠] FULLWIDTH CENT SIGN
u+ffe0:
0x8191:
    ................
    ................
    ................
    ...........@....
    ...........@....
    .......@@@@.....
    ......@...@@....
    .....@...@..@...
    .....@...@.@@...
    .....@..@.......
    .....@.@........
    .....@.@....@...
    ......@....@....
    ......@@@@@.....
    .....@..........
    ................


# [￡] FULLWIDTH POUND SIGN
u+ffe1:
0x8192:
    ................
    ........@@@@....
    .......@....@...
    ......@......@..
    ......@.....@@..
    ......@.....@...
    .......@........
    ....@@@@@@@@....
    .......@........
    .......@........
    .......@........
    ...@@@.@........
    ..@...@@......@.
    ..@..@..@@...@..
    ...@@.....@@@...
    ................


# [％] FULLWIDTH PERCENT SIGN
u+ff05:
0x8193:
    ................
    ..@@@.........@.
    .@...@.......@..
    .@...@......@...
    .@...@.....@....
    .@...@....@.....
    .@...@...@......
    ..@@@...@.......
    .......@...@@@..
    ......@...@...@.
    .....@....@...@.
    ....@.....@...@.
    ...@......@...@.
    ..@.......@...@.
    .@.........@@@..
    ................


# [＃] FULLWIDTH NUMBER SIGN
u+ff03:
0x8194:
    ................
    ......@....@....
    ......@....@....
    ......@....@....
    ......@....@....
    ...@@@@@@@@@@@..
    .....@....@.....
    .....@....@.....
    .....@....@.....
    .....@....@.....
    ..@@@@@@@@@@@...
    ....@....@......
    ....@....@......
    ....@....@......
    ....@....@......
    ................


# [＆] FULLWIDTH AMPERSAND
u+ff06:
0x8195:
    ................
    .....@@@........
    ....@...@.......
    ....@...@.......
    ....@...@.......
    .....@.@........
    .....@@.........
    ....@.@.........
    ...@...@..@@@@..
    ..@.....@...@...
    ..@.....@...@...
    ..@......@.@....
    ..@.......@.....
    ...@....@@.@..@.
    ....@@@@....@@..
    ................


# [＊] FULLWIDTH ASTERISK
u+ff0a:
0x8196:
    ................
    ........@.......
    ........@.......
    ...@....@....@..
    ...@@...@...@@..
    ....@@..@..@@...
    ......@.@.@.....
    .......@@@......
    .......@@@......
    ......@.@.@.....
    ....@@..@..@@...
    ...@@...@...@@..
    ...@....@....@..
    ........@.......
    ........@.......
    ................


# [＠] FULLWIDTH COMMERCIAL AT
u+ff20:
0x8197:
    ................
    ......@@@@@.....
    ....@@.....@@...
    ...@.........@..
    ..@..........@..
    ..@....@@.@...@.
    .@....@..@@...@.
    .@...@....@...@.
    .@...@...@....@.
    .@...@...@...@..
    ..@...@@@.@@@...
    ..@.............
    ...@.........@..
    ....@@.....@@...
    ......@@@@@.....
    ................


# [§] SECTION SIGN
u+00a7:
0x8198:
    ......@@@@......
    .....@....@.....
    .....@...@@.....
    .....@..........
    ......@@........
    ......@.@.......
    .....@...@......
    .....@....@.....
    ......@...@.....
    .......@.@......
    ........@@......
    ..........@.....
    .....@@...@.....
    .....@....@.....
    ......@@@@......
    ................


# [☆] WHITE STAR
u+2606:
0x8199:
    ........@.......
    ........@.......
    .......@.@......
    .......@.@......
    .......@.@......
    ......@...@.....
    .@@@@@@...@@@@@@
    ..@@.........@@.
    ....@.......@...
    .....@.....@....
    .....@..@..@....
    ....@..@.@..@...
    ....@.@...@.@...
    ....@@.....@@...
    ...@@.......@@..
    ...@.........@..


# [★] BLACK STAR
u+2605:
0x819a:
    ........@.......
    ........@.......
    .......@@@......
    .......@@@......
    .......@@@......
    ......@@@@@.....
    .@@@@@@@@@@@@@@@
    ..@@@@@@@@@@@@@.
    ....@@@@@@@@@...
    .....@@@@@@@....
    .....@@@@@@@....
    ....@@@@.@@@@...
    ....@@@...@@@...
    ....@@.....@@...
    ...@@.......@@..
    ...@.........@..


# [○] WHITE CIRCLE
u+25cb:
0x819b:
    ................
    ......@@@@......
    ....@@....@@....
    ...@........@...
    ..@..........@..
    ..@..........@..
    .@............@.
    .@............@.
    .@............@.
    .@............@.
    ..@..........@..
    ..@..........@..
    ...@........@...
    ....@@....@@....
    ......@@@@......
    ................


# [●] BLACK CIRCLE
u+25cf:
0x819c:
    ................
    ......@@@@......
    ....@@@@@@@@....
    ...@@@@@@@@@@...
    ..@@@@@@@@@@@@..
    ..@@@@@@@@@@@@..
    .@@@@@@@@@@@@@@.
    .@@@@@@@@@@@@@@.
    .@@@@@@@@@@@@@@.
    .@@@@@@@@@@@@@@.
    ..@@@@@@@@@@@@..
    ..@@@@@@@@@@@@..
    ...@@@@@@@@@@...
    ....@@@@@@@@....
    ......@@@@......
    ................


# [◎] BULLSEYE
u+25ce:
0x819d:
    ................
    ......@@@@......
    ....@@....@@....
    ...@........@...
    ..@...@@@@...@..
    ..@..@....@..@..
    .@..@......@..@.
    .@..@......@..@.
    .@..@......@..@.
    .@..@......@..@.
    ..@..@....@..@..
    ..@...@@@@...@..
    ...@........@...
    ....@@....@@....
    ......@@@@......
    ................


# [◇] WHITE DIAMOND
u+25c7:
0x819e:
    ........@.......
    .......@.@......
    ......@...@.....
    .....@.....@....
    ....@.......@...
    ...@.........@..
    ..@...........@.
    .@.............@
    ..@...........@.
    ...@.........@..
    ....@.......@...
    .....@.....@....
    ......@...@.....
    .......@.@......
    ........@.......
    ................


# [◆] BLACK DIAMOND
u+25c6:
0x819f:
    ........@.......
    .......@@@......
    ......@@@@@.....
    .....@@@@@@@....
    ....@@@@@@@@@...
    ...@@@@@@@@@@@..
    ..@@@@@@@@@@@@@.
    .@@@@@@@@@@@@@@@
    ..@@@@@@@@@@@@@.
    ...@@@@@@@@@@@..
    ....@@@@@@@@@...
    .....@@@@@@@....
    ......@@@@@.....
    .......@@@......
    ........@.......
    ................


# [□] WHITE SQUARE
u+25a1:
0x81a0:
    ................
    .@@@@@@@@@@@@@@.
    .@............@.
    .@............@.
    .@............@.
    .@............@.
    .@............@.
    .@............@.
    .@............@.
    .@............@.
    .@............@.
    .@............@.
    .@............@.
    .@............@.
    .@@@@@@@@@@@@@@.
    ................


# [■] BLACK SQUARE
u+25a0:
0x81a1:
    ................
    .@@@@@@@@@@@@@@.
    .@@@@@@@@@@@@@@.
    .@@@@@@@@@@@@@@.
    .@@@@@@@@@@@@@@.
    .@@@@@@@@@@@@@@.
    .@@@@@@@@@@@@@@.
    .@@@@@@@@@@@@@@.
    .@@@@@@@@@@@@@@.
    .@@@@@@@@@@@@@@.
    .@@@@@@@@@@@@@@.
    .@@@@@@@@@@@@@@.
    .@@@@@@@@@@@@@@.
    .@@@@@@@@@@@@@@.
    .@@@@@@@@@@@@@@.
    ................


# [△] WHITE UP-POINTING TRIANGLE
u+25b3:
0x81a2:
    ................
    ........@.......
    ........@.......
    .......@.@......
    .......@.@......
    ......@...@.....
    ......@...@.....
    .....@.....@....
    ....@.......@...
    ....@.......@...
    ...@.........@..
    ...@.........@..
    ..@...........@.
    .@@@@@@@@@@@@@@@
    ................
    ................


# [▲] BLACK UP-POINTING TRIANGLE
u+25b2:
0x81a3:
    ................
    ........@.......
    ........@.......
    .......@@@......
    .......@@@......
    ......@@@@@.....
    ......@@@@@.....
    .....@@@@@@@....
    ....@@@@@@@@@...
    ....@@@@@@@@@...
    ...@@@@@@@@@@@..
    ...@@@@@@@@@@@..
    ..@@@@@@@@@@@@@.
    .@@@@@@@@@@@@@@@
    ................
    ................


# [▽] WHITE DOWN-POINTING TRIANGLE
u+25bd:
0x81a4:
    ................
    ................
    .@@@@@@@@@@@@@@@
    ..@...........@.
    ...@.........@..
    ...@.........@..
    ....@.......@...
    ....@.......@...
    .....@.....@....
    ......@...@.....
    ......@...@.....
    .......@.@......
    .......@.@......
    ........@.......
    ........@.......
    ................


# [▼] BLACK DOWN-POINTING TRIANGLE
u+25bc:
0x81a5:
    ................
    ................
    .@@@@@@@@@@@@@@@
    ..@@@@@@@@@@@@@.
    ...@@@@@@@@@@@..
    ...@@@@@@@@@@@..
    ....@@@@@@@@@...
    ....@@@@@@@@@...
    .....@@@@@@@....
    ......@@@@@.....
    ......@@@@@.....
    .......@@@......
    .......@@@......
    ........@.......
    ........@.......
    ................


# [※] REFERENCE MARK
u+203b:
0x81a6:
    ................
    .@.....@@.....@.
    ..@....@@....@..
    ...@........@...
    ....@......@....
    .....@....@.....
    ......@..@......
    .@@....@@....@@.
    .@@....@@....@@.
    ......@..@......
    .....@....@.....
    ....@......@....
    ...@........@...
    ..@....@@....@..
    .@.....@@.....@.
    ................


# [〒] POSTAL MARK
u+3012:
0x81a7:
    ................
    .@@@@@@@@@@@@@@.
    .@@@@@@@@@@@@@@.
    ................
    ................
    ................
    .@@@@@@@@@@@@@@.
    .@@@@@@@@@@@@@@.
    .......@@.......
    .......@@.......
    .......@@.......
    .......@@.......
    .......@@.......
    .......@@.......
    .......@@.......
    ................


# [→] RIGHTWARDS ARROW
u+2192:
0x81a8:
    ................
    ................
    ................
    ................
    ............@...
    .............@..
    ..............@.
    .@@@@@@@@@@@@@@@
    ..............@.
    .............@..
    ............@...
    ................
    ................
    ................
    ................
    ................


# [←] LEFTWARDS ARROW
u+2190:
0x81a9:
    ................
    ................
    ................
    ................
    ....@...........
    ...@............
    ..@.............
    .@@@@@@@@@@@@@@@
    ..@.............
    ...@............
    ....@...........
    ................
    ................
    ................
    ................
    ................


# [↑] UPWARDS ARROW
u+2191:
0x81aa:
    ........@.......
    .......@@@......
    ......@.@.@.....
    .....@..@..@....
    ........@.......
    ........@.......
    ........@.......
    ........@.......
    ........@.......
    ........@.......
    ........@.......
    ........@.......
    ........@.......
    ........@.......
    ........@.......
    ........@.......


# [↓] DOWNWARDS ARROW
u+2193:
0x81ab:
    ........@.......
    ........@.......
    ........@.......
    ........@.......
    ........@.......
    ........@.......
    ........@.......
    ........@.......
    ........@.......
    ........@.......
    ........@.......
    ........@.......
    .....@..@..@....
    ......@.@.@.....
    .......@@@......
    ........@.......


# [〓] GETA MARK
u+3013:
0x81ac:
    ................
    ................
    ................
    .@@@@@@@@@@@@@@.
    .@@@@@@@@@@@@@@.
    .@@@@@@@@@@@@@@.
    ................
    ................
    ................
    ................
    .@@@@@@@@@@@@@@.
    .@@@@@@@@@@@@@@.
    .@@@@@@@@@@@@@@.
    ................
    ................
    ................

0x81ad:
    ................
    ................
    ................
    ................
    ................
    ................
    ................
    ................
    ................
    ................
    ................
    ................
    ................
    ................
    ................
    ................

0x81ae:
    ................
    ................
    ................
    ................
    ................
    ................
    ................
    ................
    ................
    ................
    ................
    ................
    ................
    ................
    ................
    ................

0x81af:
    ................
    ................
    ................
    ................
    ................
    ................
    ................
    ................
    ................
    ................
    ................
    ................
    ................
    ................
    ................
    ................

0x81b0:
    ................
    ................
    ................
    ................
    ................
    ................
    ................
    ................
    ................
    ................
    ................
    ................
    ................
    ................
    ................
    ................

0x81b1:
    ................
    ................
    ................
    ................
    ................
    ................
    ................
    ................
    ................
    ................
    ................
    ................
    ................
    ................
    ................
    ................

0x81b2:
    ................
    ................
    ................
    ................
    ................
    ................
    ................
    ................
    ................
    ................
    ................
    ................
    ................
    ................
    ................
    ................

0x81b3:
    ................
    ................
    ................
    ................
    ................
    ................
    ................
    ................
    ................
    ................
    ................
    ................
    ................
    ................
    ................
    ................

0x81b4:
    ................
    ................
    ................
    ................
    ................
    ................
    ................
    ................
    ................
    ................
    ................
    ................
    ................
    ................
    ................
    ................

0x81b5:
    ................
    ................
    ................
    ................
    ................
    ................
    ................
    ................
    ................
    ................
    ................
    ................
    ................
    ................
    ................
    ................

0x81b6:
    ................
    ................
    ................
    ................
    ................
    ................
    ................
    ................
    ................
    ................
    ................
    ................
    ................
    ................
    ................
    ................

0x81b7:
    ................
    ................
    ................
    ................
    ................
    ................
    ................
    ................
    ................
    ................
    ................
    ................
    ................
    ................
    ................
    ................


# [∈] ELEMENT OF
u+2208:
0x81b8:
    ................
    ................
    ......@@@@@@@@..
    ....@@..........
    ...@............
    ...@............
    ..@.............
    ..@@@@@@@@@@@@..
    ..@.............
    ...@............
    ...@............
    ....@@..........
    ......@@@@@@@@..
    ................
    ................
    ................


# [∋] CONTAINS AS MEMBER
u+220b:
0x81b9:
    ................
    ................
    ...@@@@@@@@.....
    ...........@@...
    .............@..
    .............@..
    ..............@.
    ...@@@@@@@@@@@@.
    ..............@.
    .............@..
    .............@..
    ...........@@...
    ...@@@@@@@@.....
    ................
    ................
    ................


# [⊆] SUBSET OF OR EQUAL TO
u+2286:
0x81ba:
    ................
    ................
    ....@@@@@@@@@@..
    ...@............
    ..@.............
    ..@.............
    ..@.............
    ..@.............
    ..@.............
    ...@............
    ....@@@@@@@@@@..
    ................
    ................
    ..@@@@@@@@@@@@..
    ................
    ................


# [⊇] SUPERSET OF OR EQUAL TO
u+2287:
0x81bb:
    ................
    ................
    ...@@@@@@@@@@...
    .............@..
    ..............@.
    ..............@.
    ..............@.
    ..............@.
    ..............@.
    .............@..
    ...@@@@@@@@@@...
    ................
    ................
    ...@@@@@@@@@@@@.
    ................
    ................


# [⊂] SUBSET OF
u+2282:
0x81bc:
    ................
    ................
    ................
    .....@@@@@@@@@..
    ...@@...........
    ...@............
    ..@.............
    ..@.............
    ..@.............
    ..@.............
    ...@............
    ...@@...........
    .....@@@@@@@@@..
    ................
    ................
    ................


# [⊃] SUPERSET OF
u+2283:
0x81bd:
    ................
    ................
    ................
    ...@@@@@@@@@....
    ............@@..
    .............@..
    ..............@.
    ..............@.
    ..............@.
    ..............@.
    .............@..
    ............@@..
    ...@@@@@@@@@....
    ................
    ................
    ................


# [∪] UNION
u+222a:
0x81be:
    ................
    ................
    ...@........@...
    ...@........@...
    ...@........@...
    ...@........@...
    ...@........@...
    ...@........@...
    ...@........@...
    ...@........@...
    ...@........@...
    ....@......@....
    ....@@....@@....
    ......@@@@......
    ................
    ................


# [∩] INTERSECTION
u+2229:
0x81bf:
    ................
    ................
    ......@@@@......
    ....@@....@@....
    ....@......@....
    ...@........@...
    ...@........@...
    ...@........@...
    ...@........@...
    ...@........@...
    ...@........@...
    ...@........@...
    ...@........@...
    ...@........@...
    ................
    ................

0x81c0:
    ................
    ................
    ................
    ................
    ................
    ................
    ................
    ................
    ................
    ................
    ................
    ................
    ................
    ................
    ................
    ................

0x81c1:
    ................
    ................
    ................
    ................
    ................
    ................
    ................
    ................
    ................
    ................
    ................
    ................
    ................
    ................
    ................
    ................

0x81c2:
    ................
    ................
    ................
    ................
    ................
    ................
    ................
    ................
    ................
    ................
    ................
    ................
    ................
    ................
    ................
    ................

0x81c3:
    ................
    ................
    ................
    ................
    ................
    ................
    ................
    ................
    ................
    ................
    ................
    ................
    ................
    ................
    ................
    ................

0x81c4:
    ................
    ................
    ................
    ................
    ................
    ................
    ................
    ................
    ................
    ................
    ................
    ................
    ................
    ................
    ................
    ................

0x81c5:
    ................
    ................
    ................
    ................
    ................
    ................
    ................
    ................
    ................
    ................
    ................
    ................
    ................
    ................
    ................
    ................

0x81c6:
    ................
    ................
    ................
    ................
    ................
    ................
    ................
    ................
    ................
    ................
    ................
    ................
    ................
    ................
    ................
    ................

0x81c7:
    ................
    ................
    ................
    ................
    ................
    ................
    ................
    ................
    ................
    ................
    ................
    ................
    ................
    ................
    ................
    ................


# [∧] LOGICAL AND
u+2227:
0x81c8:
    ................
    ................
    ........@.......
    ........@.......
    .......@.@......
    .......@.@......
    ......@...@.....
    ......@...@.....
    .....@.....@....
    .....@.....@....
    ....@.......@...
    ....@.......@...
    ...@.........@..
    ...@.........@..
    ................
    ................


# [∨] LOGICAL OR
u+2228:
0x81c9:
    ................
    ................
    ...@.........@..
    ...@.........@..
    ....@.......@...
    ....@.......@...
    .....@.....@....
    .....@.....@....
    ......@...@.....
    ......@...@.....
    .......@.@......
    .......@.@......
    ........@.......
    ........@.......
    ................
    ................


# [￢] FULLWIDTH NOT SIGN
u+ffe2:
0x81ca:
    ................
    ................
    ................
    ................
    ................
    ................
    .@@@@@@@@@@@@@@.
    ..............@.
    ..............@.
    ..............@.
    ..............@.
    ................
    ................
    ................
    ................
    ................


# [⇒] RIGHTWARDS DOUBLE ARROW
u+21d2:
0x81cb:
    ................
    ................
    ................
    ...........@....
    ............@...
    .@@@@@@@@@@@@@..
    ..............@.
    ...............@
    ..............@.
    .@@@@@@@@@@@@@..
    ............@...
    ...........@....
    ................
    ................
    ................
    ................


# [⇔] LEFT RIGHT DOUBLE ARROW
u+21d4:
0x81cc:
    ................
    ................
    ................
    .....@.....@....
    ....@.......@...
    ...@@@@@@@@@@@..
    ..@...........@.
    .@.............@
    ..@...........@.
    ...@@@@@@@@@@@..
    ....@.......@...
    .....@.....@....
    ................
    ................
    ................
    ................


# [∀] FOR ALL
u+2200:
0x81cd:
    ................
    ................
    ...@.........@..
    ...@.........@..
    ....@.......@...
    ....@@@@@@@@@...
    .....@.....@....
    .....@.....@....
    ......@...@.....
    ......@...@.....
    .......@.@......
    .......@.@......
    ........@.......
    ........@.......
    ................
    ................


# [∃] THERE EXISTS
u+2203:
0x81ce:
    ................
    ................
    ....@@@@@@@@@...
    ............@...
    ............@...
    ............@...
    ............@...
    ....@@@@@@@@@...
    ............@...
    ............@...
    ............@...
    ............@...
    ....@@@@@@@@@...
    ................
    ................
    ................

0x81cf:
    ................
    ................
    ................
    ................
    ................
    ................
    ................
    ................
    ................
    ................
    ................
    ................
    ................
    ................
    ................
    ................

0x81d0:
    ................
    ................
    ................
    ................
    ................
    ................
    ................
    ................
    ................
    ................
    ................
    ................
    ................
    ................
    ................
    ................

0x81d1:
    ................
    ................
    ................
    ................
    ................
    ................
    ................
    ................
    ................
    ................
    ................
    ................
    ................
    ................
    ................
    ................

0x81d2:
    ................
    ................
    ................
    ................
    ................
    ................
    ................
    ................
    ................
    ................
    ................
    ................
    ................
    ................
    ................
    ................

0x81d3:
    ................
    ................
    ................
    ................
    ................
    ................
    ................
    ................
    ................
    ................
    ................
    ................
    ................
    ................
    ................
    ................

0x81d4:
    ................
    ................
    ................
    ................
    ................
    ................
    ................
    ................
    ................
    ................
    ................
    ................
    ................
    ................
    ................
    ................

0x81d5:
    ................
    ................
    ................
    ................
    ................
    ................
    ................
    ................
    ................
    ................
    ................
    ................
    ................
    ................
    ................
    ................

0x81d6:
    ................
    ................
    ................
    ................
    ................
    ................
    ................
    ................
    ................
    ................
    ................
    ................
    ................
    ................
    ................
    ................

0x81d7:
    ................
    ................
    ................
    ................
    ................
    ................
    ................
    ................
    ................
    ................
    ................
    ................
    ................
    ................
    ................
    ................

0x81d8:
    ................
    ................
    ................
    ................
    ................
    ................
    ................
    ................
    ................
    ................
    ................
    ................
    ................
    ................
    ................
    ................

0x81d9:
    ................
    ................
    ................
    ................
    ................
    ................
    ................
    ................
    ................
    ................
    ................
    ................
    ................
    ................
    ................
    ................


# [∠] ANGLE
u+2220:
0x81da:
    ................
    ................
    ................
    ............@...
    ...........@....
    ..........@.....
    .........@......
    ........@.......
    .......@........
    ......@.........
    .....@..........
    ....@...........
    ...@@@@@@@@@@@..
    ................
    ................
    ................


# [⊥] UP TACK
u+22a5:
0x81db:
    ................
    ................
    ........@.......
    ........@.......
    ........@.......
    ........@.......
    ........@.......
    ........@.......
    ........@.......
    ........@.......
    ........@.......
    ........@.......
    ...@@@@@@@@@@@..
    ................
    ................
    ................


# [⌒] ARC
u+2312:
0x81dc:
    .....@@@@@@@....
    ..@@@.......@@@.
    .@.............@
    ................
    ................
    ................
    ................
    ................
    ................
    ................
    ................
    ................
    ................
    ................
    ................
    ................


# [∂] PARTIAL DIFFERENTIAL
u+2202:
0x81dd:
    ................
    .......@@@......
    ......@...@.....
    .....@.....@....
    ...........@....
    ...........@....
    .......@@@.@....
    ......@...@@....
    .....@.....@....
    ....@......@....
    ....@......@....
    ....@.....@.....
    ....@.....@.....
    .....@...@......
    ......@@@.......
    ................


# [∇] NABLA
u+2207:
0x81de:
    ................
    ................
    ...@@@@@@@@@@@..
    ...@.........@..
    ....@.......@...
    ....@.......@...
    .....@.....@....
    .....@.....@....
    ......@...@.....
    ......@...@.....
    .......@.@......
    .......@.@......
    ........@.......
    ........@.......
    ................
    ................


# [≡] IDENTICAL TO
u+2261:
0x81df:
    ................
    ................
    ................
    ................
    ...@@@@@@@@@@@..
    ................
    ................
    ...@@@@@@@@@@@..
    ................
    ................
    ...@@@@@@@@@@@..
    ................
    ................
    ................
    ................
    ................


# [≒] APPROXIMATELY EQUAL TO OR THE IMAGE OF
u+2252:
0x81e0:
    ................
    ................
    ....@@..........
    ....@@..........
    ................
    ................
    ...@@@@@@@@@@@..
    ................
    ................
    ...@@@@@@@@@@@..
    ................
    ................
    ...........@@...
    ...........@@...
    ................
    ................


# [≪] MUCH LESS-THAN
u+226a:
0x81e1:
    ................
    ................
    .........@....@.
    .......@@...@@..
    ......@....@....
    ....@@...@@.....
    ...@....@.......
    .@@...@@........
    ...@....@.......
    ....@@...@@.....
    ......@....@....
    .......@@...@@..
    .........@....@.
    ................
    ................
    ................


# [≫] MUCH GREATER-THAN
u+226b:
0x81e2:
    ................
    ................
    ..@....@........
    ...@@...@@......
    .....@....@.....
    ......@@...@@...
    ........@....@..
    .........@@...@@
    ........@....@..
    ......@@...@@...
    .....@....@.....
    ...@@...@@......
    ..@....@........
    ................
    ................
    ................


# [√] SQUARE ROOT
u+221a:
0x81e3:
    .......@@@@@@@@@
    .......@........
    .......@........
    .......@........
    ......@.........
    ......@.........
    ......@.........
    ......@.........
    ..@...@.........
    ..@..@..........
    .@.@.@..........
    .@.@.@..........
    ...@.@..........
    ....@...........
    ....@...........
    ....@...........


# [∽] REVERSED TILDE
u+223d:
0x81e4:
    ................
    ................
    ................
    ................
    ...@@@.....@@@..
    ..@.......@...@.
    .@.......@.....@
    .@......@......@
    .@......@......@
    .@.....@.......@
    ..@...@.......@.
    ...@@@.....@@@..
    ................
    ................
    ................
    ................


# [∝] PROPORTIONAL TO
u+221d:
0x81e5:
    ................
    ................
    ................
    ................
    ...@@@.....@@@..
    ..@...@...@...@.
    .@.....@.@.....@
    .@......@.......
    .@......@.......
    .@.....@.@.....@
    ..@...@...@...@.
    ...@@@.....@@@..
    ................
    ................
    ................
    ................


# [∵] BECAUSE
u+2235:
0x81e6:
    ................
    ................
    ................
    ...@@......@@...
    ...@@......@@...
    ................
    ................
    ................
    ................
    ................
    ................
    .......@@.......
    .......@@.......
    ................
    ................
    ................


# [∫] INTEGRAL
u+222b:
0x81e7:
    .......@@.......
    ......@..@......
    ......@.........
    ......@.........
    .......@........
    .......@........
    .......@........
    .......@........
    ........@.......
    ........@.......
    ........@.......
    ........@.......
    .........@......
    .........@......
    ......@..@......
    .......@@.......


# [∬] DOUBLE INTEGRAL
u+222c:
0x81e8:
    ....@@....@@....
    ...@..@..@..@...
    ...@.....@......
    ...@.....@......
    ....@.....@.....
    ....@.....@.....
    ....@.....@.....
    ....@.....@.....
    .....@.....@....
    .....@.....@....
    .....@.....@....
    .....@.....@....
    ......@.....@...
    ......@.....@...
    ...@..@..@..@...
    ....@@....@@....

0x81e9:
    ................
    ................
    ................
    ................
    ................
    ................
    ................
    ................
    ................
    ................
    ................
    ................
    ................
    ................
    ................
    ................

0x81ea:
    ................
    ................
    ................
    ................
    ................
    ................
    ................
    ................
    ................
    ................
    ................
    ................
    ................
    ................
    ................
    ................

0x81eb:
    ................
    ................
    ................
    ................
    ................
    ................
    ................
    ................
    ................
    ................
    ................
    ................
    ................
    ................
    ................
    ................

0x81ec:
    ................
    ................
    ................
    ................
    ................
    ................
    ................
    ................
    ................
    ................
    ................
    ................
    ................
    ................
    ................
    ................

0x81ed:
    ................
    ................
    ................
    ................
    ................
    ................
    ................
    ................
    ................
    ................
    ................
    ................
    ................
    ................
    ................
    ................

0x81ee:
    ................
    ................
    ................
    ................
    ................
    ................
    ................
    ................
    ................
    ................
    ................
    ................
    ................
    ................
    ................
    ................

0x81ef:
    ................
    ................
    ................
    ................
    ................
    ................
    ................
    ................
    ................
    ................
    ................
    ................
    ................
    ................
    ................
    ................


# [Å] ANGSTROM SIGN
u+212b:
0x81f0:
    ........@.......
    .......@.@......
    ........@.......
    ................
    ........@.......
    .......@.@......
    .......@.@......
    ......@...@.....
    ......@...@.....
    .....@.....@....
    .....@@@@@@@....
    ....@.......@...
    ....@.......@...
    ...@.........@..
    ..@@@.......@@@.
    ................


# [‰] PER MILLE SIGN
u+2030:
0x81f1:
    ................
    ..@@......@.....
    .@..@....@......
    .@..@....@......
    .@..@...@.......
    .@..@..@........
    .@..@..@........
    ..@@..@.........
    .....@.@@...@@..
    ....@.@..@.@..@.
    ....@.@..@.@..@.
    ...@..@..@.@..@.
    ..@...@..@.@..@.
    ..@...@..@.@..@.
    .@.....@@...@@..
    ................


# [♯] MUSIC SHARP SIGN
u+266f:
0x81f2:
    ..........@.....
    ......@...@.....
    ......@...@.....
    ......@...@.....
    ......@...@@@@..
    ......@@@@@.....
    ...@@@@...@.....
    ......@...@.....
    ......@...@.....
    ......@...@@@@..
    ......@@@@@.....
    ...@@@@...@.....
    ......@...@.....
    ......@...@.....
    ......@...@.....
    ......@.........


# [♭] MUSIC FLAT SIGN
u+266d:
0x81f3:
    .....@..........
    .....@..........
    .....@..........
    .....@..........
    .....@..........
    .....@..........
    .....@..........
    .....@.@@@@.....
    .....@@...@@....
    .....@.....@....
    .....@.....@....
    .....@.....@....
    .....@....@.....
    .....@...@......
    .....@.@@.......
    .....@@.........


# [♪] EIGHTH NOTE
u+266a:
0x81f4:
    ........@.......
    ........@@......
    ........@.@.....
    ........@..@....
    ........@...@...
    ........@....@..
    ........@....@..
    ........@....@..
    ........@...@...
    ........@...@...
    ........@..@....
    ........@.......
    ......@@@.......
    .....@@@@.......
    ....@@@@........
    ....@@@.........


# [†] DAGGER
u+2020:
0x81f5:
    ........@.......
    .......@@@......
    ........@.......
    .....@@@@@@@....
    ......@.@.@.....
    ........@.......
    .......@@@......
    ........@.......
    ........@.......
    ........@.......
    ........@.......
    ........@.......
    ........@.......
    ........@.......
    ........@.......
    ........@.......


# [‡] DOUBLE DAGGER
u+2021:
0x81f6:
    ........@.......
    .......@@@......
    ........@.......
    .....@@@@@@@....
    ......@.@.@.....
    ........@.......
    .......@@@......
    ........@.......
    ........@.......
    .......@@@......
    ........@.......
    ......@.@.@.....
    .....@@@@@@@....
    ........@.......
    .......@@@......
    ........@.......


# [¶] PILCROW SIGN
u+00b6:
0x81f7:
    ......@@@@@.....
    .....@@@..@.....
    ....@@@@..@.....
    ....@@@@..@.....
    ....@@@@..@.....
    ....@@@@..@.....
    .....@@@..@.....
    ......@@..@.....
    .......@..@.....
    .......@..@.....
    .......@..@.....
    .......@..@.....
    .......@..@.....
    .......@..@.....
    .......@..@.....
    .......@..@.....

0x81f8:
    ................
    ................
    ................
    ................
    ................
    ................
    ................
    ................
    ................
    ................
    ................
    ................
    ................
    ................
    ................
    ................

0x81f9:
    ................
    ................
    ................
    ................
    ................
    ................
    ................
    ................
    ................
    ................
    ................
    ................
    ................
    ................
    ................
    ................

0x81fa:
    ................
    ................
    ................
    ................
    ................
    ................
    ................
    ................
    ................
    ................
    ................
    ................
    ................
    ................
    ................
    ................

0x81fb:
    ................
    ................
    ................
    ................
    ................
    ................
    ................
    ................
    ................
    ................
    ................
    ................
    ................
    ................
    ................
    ................


# [◯] LARGE CIRCLE
u+25ef:
0x81fc:
    ......@@@@@.....
    ....@@.....@@...
    ...@.........@..
    ..@...........@.
    ..@...........@.
    .@.............@
    .@.............@
    .@.............@
    .@.............@
    .@.............@
    ..@...........@.
    ..@...........@.
    ...@.........@..
    ....@@.....@@...
    ......@@@@@.....
    ................

0x8240:
    ................
    ................
    ................
    ................
    ................
    ................
    ................
    ................
    ................
    ................
    ................
    ................
    ................
    ................
    ................
    ................

0x8241:
    ................
    ................
    ................
    ................
    ................
    ................
    ................
    ................
    ................
    ................
    ................
    ................
    ................
    ................
    ................
    ................

0x8242:
    ................
    ................
    ................
    ................
    ................
    ................
    ................
    ................
    ................
    ................
    ................
    ................
    ................
    ................
    ................
    ................

0x8243:
    ................
    ................
    ................
    ................
    ................
    ................
    ................
    ................
    ................
    ................
    ................
    ................
    ................
    ................
    ................
    ................

0x8244:
    ................
    ................
    ................
    ................
    ................
    ................
    ................
    ................
    ................
    ................
    ................
    ................
    ................
    ................
    ................
    ................

0x8245:
    ................
    ................
    ................
    ................
    ................
    ................
    ................
    ................
    ................
    ................
    ................
    ................
    ................
    ................
    ................
    ................

0x8246:
    ................
    ................
    ................
    ................
    ................
    ................
    ................
    ................
    ................
    ................
    ................
    ................
    ................
    ................
    ................
    ................

0x8247:
    ................
    ................
    ................
    ................
    ................
    ................
    ................
    ................
    ................
    ................
    ................
    ................
    ................
    ................
    ................
    ................

0x8248:
    ................
    ................
    ................
    ................
    ................
    ................
    ................
    ................
    ................
    ................
    ................
    ................
    ................
    ................
    ................
    ................

0x8249:
    ................
    ................
    ................
    ................
    ................
    ................
    ................
    ................
    ................
    ................
    ................
    ................
    ................
    ................
    ................
    ................

0x824a:
    ................
    ................
    ................
    ................
    ................
    ................
    ................
    ................
    ................
    ................
    ................
    ................
    ................
    ................
    ................
    ................

0x824b:
    ................
    ................
    ................
    ................
    ................
    ................
    ................
    ................
    ................
    ................
    ................
    ................
    ................
    ................
    ................
    ................

0x824c:
    ................
    ................
    ................
    ................
    ................
    ................
    ................
    ................
    ................
    ................
    ................
    ................
    ................
    ................
    ................
    ................

0x824d:
    ................
    ................
    ................
    ................
    ................
    ................
    ................
    ................
    ................
    ................
    ................
    ................
    ................
    ................
    ................
    ................

0x824e:
    ................
    ................
    ................
    ................
    ................
    ................
    ................
    ................
    ................
    ................
    ................
    ................
    ................
    ................
    ................
    ................


# [０] FULLWIDTH DIGIT ZERO
u+ff10:
0x824f:
    ................
    ......@@@@......
    .....@....@.....
    ....@......@....
    ....@......@....
    ....@......@....
    ....@......@....
    ....@......@....
    ....@......@....
    ....@......@....
    ....@......@....
    ....@......@....
    ....@......@....
    .....@....@.....
    ......@@@@......
    ................


# [１] FULLWIDTH DIGIT ONE
u+ff11:
0x8250:
    ................
    ........@.......
    ......@@@.......
    ........@.......
    ........@.......
    ........@.......
    ........@.......
    ........@.......
    ........@.......
    ........@.......
    ........@.......
    ........@.......
    ........@.......
    ........@.......
    ......@@@@@.....
    ................


# [２] FULLWIDTH DIGIT TWO
u+ff12:
0x8251:
    ................
    ......@@@@......
    .....@....@.....
    ....@......@....
    ....@@.....@....
    .....@.....@....
    ..........@.....
    .........@......
    ........@.......
    .......@........
    ......@.........
    .....@..........
    .....@......@...
    ....@......@....
    ....@@@@@@@@....
    ................


# [３] FULLWIDTH DIGIT THREE
u+ff13:
0x8252:
    ................
    ......@@@@......
    .....@....@.....
    ....@......@....
    ....@@.....@....
    ...........@....
    ..........@.....
    ......@@@@......
    ..........@.....
    ...........@....
    ...........@....
    ....@@.....@....
    ....@......@....
    .....@....@.....
    ......@@@@......
    ................


# [４] FULLWIDTH DIGIT FOUR
u+ff14:
0x8253:
    ................
    ..........@.....
    .........@@.....
    .........@@.....
    ........@.@.....
    .......@..@.....
    .......@..@.....
    ......@...@.....
    .....@....@.....
    .....@....@.....
    ....@.....@.....
    ...@@@@@@@@@@...
    ..........@.....
    ..........@.....
    ........@@@@@...
    ................


# [５] FULLWIDTH DIGIT FIVE
u+ff15:
0x8254:
    ................
    ....@@@@@@@.....
    ....@...........
    ....@...........
    ....@...........
    ....@...........
    ....@.@@@@......
    ....@@....@.....
    ....@......@....
    ...........@....
    ...........@....
    ....@@.....@....
    ....@......@....
    .....@....@.....
    ......@@@@......
    ................


# [６] FULLWIDTH DIGIT SIX
u+ff16:
0x8255:
    ................
    ......@@@@......
    .....@....@.....
    ....@......@....
    ....@.....@@....
    ....@...........
    ....@.@@@@......
    ....@@....@.....
    ....@......@....
    ....@......@....
    ....@......@....
    ....@......@....
    ....@......@....
    .....@....@.....
    ......@@@@......
    ................


# [７] FULLWIDTH DIGIT SEVEN
u+ff17:
0x8256:
    ................
    .....@@@@@@@@...
    .....@.....@....
    ....@......@....
    ..........@.....
    ..........@.....
    .........@......
    .........@......
    .........@......
    ........@.......
    ........@.......
    ........@.......
    ........@.......
    ........@.......
    ........@.......
    ................


# [８] FULLWIDTH DIGIT EIGHT
u+ff18:
0x8257:
    ................
    ......@@@@......
    .....@....@.....
    ....@......@....
    ....@......@....
    ....@......@....
    .....@....@.....
    ......@@@@......
    .....@....@.....
    ....@......@....
    ....@......@....
    ....@......@....
    ....@......@....
    .....@....@.....
    ......@@@@......
    ................


# [９] FULLWIDTH DIGIT NINE
u+ff19:
0x8258:
    ................
    ......@@@@......
    .....@....@.....
    ....@......@....
    ....@......@....
    ....@......@....
    ....@......@....
    ....@......@....
    .....@....@@....
    ......@@@@.@....
    ...........@....
    ....@@.....@....
    ....@......@....
    .....@....@.....
    ......@@@@......
    ................

0x8259:
    ................
    ................
    ................
    ................
    ................
    ................
    ................
    ................
    ................
    ................
    ................
    ................
    ................
    ................
    ................
    ................

0x825a:
    ................
    ................
    ................
    ................
    ................
    ................
    ................
    ................
    ................
    ................
    ................
    ................
    ................
    ................
    ................
    ................

0x825b:
    ................
    ................
    ................
    ................
    ................
    ................
    ................
    ................
    ................
    ................
    ................
    ................
    ................
    ................
    ................
    ................

0x825c:
    ................
    ................
    ................
    ................
    ................
    ................
    ................
    ................
    ................
    ................
    ................
    ................
    ................
    ................
    ................
    ................

0x825d:
    ................
    ................
    ................
    ................
    ................
    ................
    ................
    ................
    ................
    ................
    ................
    ................
    ................
    ................
    ................
    ................

0x825e:
    ................
    ................
    ................
    ................
    ................
    ................
    ................
    ................
    ................
    ................
    ................
    ................
    ................
    ................
    ................
    ................

0x825f:
    ................
    ................
    ................
    ................
    ................
    ................
    ................
    ................
    ................
    ................
    ................
    ................
    ................
    ................
    ................
    ................


# [Ａ] FULLWIDTH LATIN CAPITAL LETTER A
u+ff21:
0x8260:
    ................
    ........@.......
    ........@.......
    .......@.@......
    .......@.@......
    ......@...@.....
    ......@...@.....
    ......@...@.....
    .....@.....@....
    .....@.....@....
    ....@@@@@@@@@...
    ....@.......@...
    ....@.......@...
    ...@.........@..
    ..@@@@.....@@@@.
    ................


# [Ｂ] FULLWIDTH LATIN CAPITAL LETTER B
u+ff22:
0x8261:
    ................
    ...@@@@@@@@.....
    ....@......@....
    ....@.......@...
    ....@.......@...
    ....@.......@...
    ....@......@....
    ....@@@@@@@@....
    ....@.......@...
    ....@........@..
    ....@........@..
    ....@........@..
    ....@........@..
    ....@.......@...
    ...@@@@@@@@@....
    ................


# [Ｃ] FULLWIDTH LATIN CAPITAL LETTER C
u+ff23:
0x8262:
    ................
    .......@@@@..@..
    .....@@....@@@..
    ....@........@..
    ....@........@..
    ...@............
    ...@............
    ...@............
    ...@............
    ...@............
    ...@............
    ....@........@..
    ....@........@..
    .....@@....@@...
    .......@@@@.....
    ................


# [Ｄ] FULLWIDTH LATIN CAPITAL LETTER D
u+ff24:
0x8263:
    ................
    ...@@@@@@@......
    ....@.....@@....
    ....@.......@...
    ....@.......@...
    ....@........@..
    ....@........@..
    ....@........@..
    ....@........@..
    ....@........@..
    ....@........@..
    ....@.......@...
    ....@.......@...
    ....@.....@@....
    ...@@@@@@@......
    ................


# [Ｅ] FULLWIDTH LATIN CAPITAL LETTER E
u+ff25:
0x8264:
    ................
    ...@@@@@@@@@@...
    ....@.......@...
    ....@........@..
    ....@...........
    ....@.....@.....
    ....@.....@.....
    ....@@@@@@@.....
    ....@.....@.....
    ....@.....@.....
    ....@...........
    ....@...........
    ....@........@..
    ....@........@..
    ...@@@@@@@@@@@..
    ................


# [Ｆ] FULLWIDTH LATIN CAPITAL LETTER F
u+ff26:
0x8265:
    ................
    ...@@@@@@@@@@...
    ....@.......@...
    ....@........@..
    ....@...........
    ....@.....@.....
    ....@.....@.....
    ....@@@@@@@.....
    ....@.....@.....
    ....@.....@.....
    ....@...........
    ....@...........
    ....@...........
    ....@...........
    ...@@@@.........
    ................


# [Ｇ] FULLWIDTH LATIN CAPITAL LETTER G
u+ff27:
0x8266:
    ................
    ......@@@@..@...
    ....@@....@@@...
    ...@........@...
    ...@........@...
    ..@.............
    ..@.............
    ..@.............
    ..@.......@@@@..
    ..@.........@...
    ..@.........@...
    ...@........@...
    ...@........@...
    ....@@....@@@...
    ......@@@@..@...
    ................


# [Ｈ] FULLWIDTH LATIN CAPITAL LETTER H
u+ff28:
0x8267:
    ................
    ..@@@......@@@..
    ...@........@...
    ...@........@...
    ...@........@...
    ...@........@...
    ...@........@...
    ...@@@@@@@@@@...
    ...@........@...
    ...@........@...
    ...@........@...
    ...@........@...
    ...@........@...
    ...@........@...
    ..@@@......@@@..
    ................


# [Ｉ] FULLWIDTH LATIN CAPITAL LETTER I
u+ff29:
0x8268:
    ................
    .......@@@......
    ........@.......
    ........@.......
    ........@.......
    ........@.......
    ........@.......
    ........@.......
    ........@.......
    ........@.......
    ........@.......
    ........@.......
    ........@.......
    ........@.......
    .......@@@......
    ................


# [Ｊ] FULLWIDTH LATIN CAPITAL LETTER J
u+ff2a:
0x8269:
    ................
    ........@@@.....
    .........@......
    .........@......
    .........@......
    .........@......
    .........@......
    .........@......
    .........@......
    .........@......
    .........@......
    .........@......
    ....@@...@......
    ....@...@.......
    .....@@@........
    ................


# [Ｋ] FULLWIDTH LATIN CAPITAL LETTER K
u+ff2b:
0x826a:
    ................
    ...@@@....@@@...
    ....@......@....
    ....@.....@.....
    ....@....@......
    ....@...@.......
    ....@..@........
    ....@.@.@.......
    ....@@..@.......
    ....@....@......
    ....@.....@.....
    ....@.....@.....
    ....@......@....
    ....@.......@...
    ...@@@.....@@@..
    ................


# [Ｌ] FULLWIDTH LATIN CAPITAL LETTER L
u+ff2c:
0x826b:
    ................
    ...@@@..........
    ....@...........
    ....@...........
    ....@...........
    ....@...........
    ....@...........
    ....@...........
    ....@...........
    ....@...........
    ....@...........
    ....@...........
    ....@........@..
    ....@........@..
    ...@@@@@@@@@@@..
    ................


# [Ｍ] FULLWIDTH LATIN CAPITAL LETTER M
u+ff2d:
0x826c:
    ................
    .@@@.........@@@
    ..@@.........@@.
    ..@.@.......@.@.
    ..@.@.......@.@.
    ..@..@.....@..@.
    ..@..@.....@..@.
    ..@..@.....@..@.
    ..@...@...@...@.
    ..@...@...@...@.
    ..@....@.@....@.
    ..@....@.@....@.
    ..@....@.@....@.
    ..@.....@.....@.
    .@@@....@....@@@
    ................


# [Ｎ] FULLWIDTH LATIN CAPITAL LETTER N
u+ff2e:
0x826d:
    ................
    ..@@.......@@@..
    ...@@.......@...
    ...@.@......@...
    ...@.@......@...
    ...@..@.....@...
    ...@..@.....@...
    ...@...@....@...
    ...@....@...@...
    ...@....@...@...
    ...@.....@..@...
    ...@......@.@...
    ...@......@.@...
    ...@.......@@...
    ..@@@.......@...
    ................


# [Ｏ] FULLWIDTH LATIN CAPITAL LETTER O
u+ff2f:
0x826e:
    ................
    ......@@@@......
    ....@@....@@....
    ...@........@...
    ...@........@...
    ..@..........@..
    ..@..........@..
    ..@..........@..
    ..@..........@..
    ..@..........@..
    ..@..........@..
    ...@........@...
    ...@........@...
    ....@@....@@....
    ......@@@@......
    ................


# [Ｐ] FULLWIDTH LATIN CAPITAL LETTER P
u+ff30:
0x826f:
    ................
    ...@@@@@@@@@....
    ....@.......@...
    ....@........@..
    ....@........@..
    ....@........@..
    ....@........@..
    ....@.......@...
    ....@@@@@@@@....
    ....@...........
    ....@...........
    ....@...........
    ....@...........
    ....@...........
    ...@@@@.........
    ................


# [Ｑ] FULLWIDTH LATIN CAPITAL LETTER Q
u+ff31:
0x8270:
    ................
    ......@@@@......
    ....@@....@@....
    ...@........@...
    ...@........@...
    ..@..........@..
    ..@..........@..
    ..@..........@..
    ..@..........@..
    ..@..........@..
    ..@....@@....@..
    ...@..@..@..@...
    ...@..@...@.@...
    ....@@.@..@@..@.
    ......@@@@.@..@.
    ............@@..


# [Ｒ] FULLWIDTH LATIN CAPITAL LETTER R
u+ff32:
0x8271:
    ................
    ...@@@@@@@@.....
    ....@......@....
    ....@.......@...
    ....@.......@...
    ....@.......@...
    ....@......@....
    ....@@@@@@@.....
    ....@.....@.....
    ....@......@....
    ....@......@....
    ....@......@....
    ....@......@....
    ....@......@..@.
    ...@@@......@@..
    ................


# [Ｓ] FULLWIDTH LATIN CAPITAL LETTER S
u+ff33:
0x8272:
    ................
    .....@@@@..@....
    ....@....@@@....
    ...@.......@....
    ...@.......@....
    ...@............
    ....@@..........
    ......@@@.......
    .........@@.....
    ...........@....
    ............@...
    ...@........@...
    ...@........@...
    ...@@@.....@....
    ...@..@@@@@.....
    ................


# [Ｔ] FULLWIDTH LATIN CAPITAL LETTER T
u+ff34:
0x8273:
    ................
    ...@@@@@@@@@@@..
    ...@....@....@..
    ..@.....@.....@.
    ........@.......
    ........@.......
    ........@.......
    ........@.......
    ........@.......
    ........@.......
    ........@.......
    ........@.......
    ........@.......
    ........@.......
    .......@@@......
    ................


# [Ｕ] FULLWIDTH LATIN CAPITAL LETTER U
u+ff35:
0x8274:
    ................
    ..@@@......@@@..
    ...@........@...
    ...@........@...
    ...@........@...
    ...@........@...
    ...@........@...
    ...@........@...
    ...@........@...
    ...@........@...
    ...@........@...
    ...@........@...
    ....@......@....
    ....@@....@@....
    ......@@@@......
    ................


# [Ｖ] FULLWIDTH LATIN CAPITAL LETTER V
u+ff36:
0x8275:
    ................
    ..@@@@.....@@@@.
    ...@.........@..
    ....@.......@...
    ....@.......@...
    ....@.......@...
    .....@.....@....
    .....@.....@....
    ......@...@.....
    ......@...@.....
    ......@...@.....
    .......@.@......
    .......@.@......
    ........@.......
    ........@.......
    ................


# [Ｗ] FULLWIDTH LATIN CAPITAL LETTER W
u+ff37:
0x8276:
    ................
    .@@@..@@@@@..@@@
    ..@.....@.....@.
    ..@.....@.....@.
    ..@.....@.....@.
    ...@...@.@...@..
    ...@...@.@...@..
    ...@...@.@...@..
    ...@...@.@...@..
    ....@.@...@.@...
    ....@.@...@.@...
    ....@.@...@.@...
    .....@.....@....
    .....@.....@....
    .....@.....@....
    ................


# [Ｘ] FULLWIDTH LATIN CAPITAL LETTER X
u+ff38:
0x8277:
    ................
    ..@@@@....@@@@..
    ....@......@....
    ....@......@....
    .....@....@.....
    ......@..@......
    ......@..@......
    .......@@.......
    .......@@.......
    ......@..@......
    ......@..@......
    .....@....@.....
    ....@......@....
    ....@......@....
    ..@@@@....@@@@..
    ................


# [Ｙ] FULLWIDTH LATIN CAPITAL LETTER Y
u+ff39:
0x8278:
    ................
    ..@@@.......@@@.
    ...@.........@..
    ....@.......@...
    .....@.....@....
    .....@.....@....
    ......@...@.....
    .......@.@......
    ........@.......
    ........@.......
    ........@.......
    ........@.......
    ........@.......
    ........@.......
    .......@@@......
    ................


# [Ｚ] FULLWIDTH LATIN CAPITAL LETTER Z
u+ff3a:
0x8279:
    ................
    ...@@@@@@@@@@...
    ...@.......@....
    ...@......@.....
    ..........@.....
    .........@......
    ........@.......
    ........@.......
    .......@........
    ......@.........
    ......@.........
    .....@..........
    ....@.......@...
    ....@.......@...
    ...@@@@@@@@@@...
    ................

0x827a:
    ................
    ................
    ................
    ................
    ................
    ................
    ................
    ................
    ................
    ................
    ................
    ................
    ................
    ................
    ................
    ................

0x827b:
    ................
    ................
    ................
    ................
    ................
    ................
    ................
    ................
    ................
    ................
    ................
    ................
    ................
    ................
    ................
    ................

0x827c:
    ................
    ................
    ................
    ................
    ................
    ................
    ................
    ................
    ................
    ................
    ................
    ................
    ................
    ................
    ................
    ................

0x827d:
    ................
    ................
    ................
    ................
    ................
    ................
    ................
    ................
    ................
    ................
    ................
    ................
    ................
    ................
    ................
    ................

0x827e:
    ................
    ................
    ................
    ................
    ................
    ................
    ................
    ................
    ................
    ................
    ................
    ................
    ................
    ................
    ................
    ................

0x827f:
    ................
    ................
    ................
    ................
    ................
    ................
    ................
    ................
    ................
    ................
    ................
    ................
    ................
    ................
    ................
    ................

0x8280:
    ................
    ................
    ................
    ................
    ................
    ................
    ................
    ................
    ................
    ................
    ................
    ................
    ................
    ................
    ................
    ................


# [ａ] FULLWIDTH LATIN SMALL LETTER A
u+ff41:
0x8281:
    ................
    ................
    ................
    ................
    ................
    .......@@@......
    ......@...@.....
    .....@@....@....
    ...........@....
    .......@@@@@....
    ......@....@....
    .....@.....@....
    .....@.....@....
    .....@....@@.@..
    ......@@@@..@...
    ................


# [ｂ] FULLWIDTH LATIN SMALL LETTER B
u+ff42:
0x8282:
    ................
    ....@...........
    ...@@...........
    ....@...........
    ....@...........
    ....@.@@@@......
    ....@@....@.....
    ....@......@....
    ....@......@....
    ....@......@....
    ....@......@....
    ....@......@....
    ....@......@....
    ....@@....@.....
    ...@@.@@@@......
    ................


# [ｃ] FULLWIDTH LATIN SMALL LETTER C
u+ff43:
0x8283:
    ................
    ................
    ................
    ................
    ................
    ......@@@@......
    .....@....@.....
    ....@......@....
    ....@.....@@....
    ....@...........
    ....@...........
    ....@...........
    ....@......@....
    .....@....@.....
    ......@@@@......
    ................


# [ｄ] FULLWIDTH LATIN SMALL LETTER D
u+ff44:
0x8284:
    ................
    ...........@....
    ..........@@....
    ...........@....
    ...........@....
    ......@@@@.@....
    .....@....@@....
    ....@......@....
    ....@......@....
    ....@......@....
    ....@......@....
    ....@......@....
    ....@......@....
    .....@....@@....
    ......@@@@.@@...
    ................


# [ｅ] FULLWIDTH LATIN SMALL LETTER E
u+ff45:
0x8285:
    ................
    ................
    ................
    ................
    ................
    ......@@@@......
    .....@....@.....
    ....@......@....
    ....@......@....
    ....@@@@@@@@....
    ....@...........
    ....@...........
    ....@......@....
    .....@....@.....
    ......@@@@......
    ................


# [ｆ] FULLWIDTH LATIN SMALL LETTER F
u+ff46:
0x8286:
    ................
    ........@@@.....
    .......@...@....
    .......@..@@....
    .......@........
    .....@@@@@......
    .......@........
    .......@........
    .......@........
    .......@........
    .......@........
    .......@........
    .......@........
    .......@........
    ......@@@.......
    ................


# [ｇ] FULLWIDTH LATIN SMALL LETTER G
u+ff47:
0x8287:
    ................
    ................
    ................
    ................
    ................
    ......@@@@.@@...
    .....@....@.@...
    .....@....@.....
    .....@....@.....
    ......@@@@......
    .....@..........
    .....@..........
    .....@@@@@@.....
    ....@......@....
    ....@......@....
    .....@@@@@@.....


# [ｈ] FULLWIDTH LATIN SMALL LETTER H
u+ff48:
0x8288:
    ................
    .....@..........
    ....@@..........
    .....@..........
    .....@..........
    .....@..@@@.....
    .....@.@...@....
    .....@@....@....
    .....@.....@....
    .....@.....@....
    .....@.....@....
    .....@.....@....
    .....@.....@....
    .....@.....@....
    ....@@@...@@@...
    ................


# [ｉ] FULLWIDTH LATIN SMALL LETTER I
u+ff49:
0x8289:
    ................
    ........@.......
    ........@.......
    ................
    ................
    ........@.......
    .......@@.......
    ........@.......
    ........@.......
    ........@.......
    ........@.......
    ........@.......
    ........@.......
    ........@.......
    .......@@@......
    ................


# [ｊ] FULLWIDTH LATIN SMALL LETTER J
u+ff4a:
0x828a:
    ................
    .........@......
    .........@......
    ................
    ................
    .........@......
    ........@@......
    .........@......
    .........@......
    .........@......
    .........@......
    .........@......
    .........@......
    ......@@.@......
    ......@..@......
    .......@@.......


# [ｋ] FULLWIDTH LATIN SMALL LETTER K
u+ff4b:
0x828b:
    ................
    ....@...........
    ...@@...........
    ....@...........
    ....@...........
    ....@...@@@@....
    ....@....@......
    ....@...@.......
    ....@..@........
    ....@@@@........
    ....@...@.......
    ....@....@......
    ....@.....@.....
    ....@......@....
    ...@@@....@@@...
    ................


# [ｌ] FULLWIDTH LATIN SMALL LETTER L
u+ff4c:
0x828c:
    ................
    ........@.......
    .......@@.......
    ........@.......
    ........@.......
    ........@.......
    ........@.......
    ........@.......
    ........@.......
    ........@.......
    ........@.......
    ........@.......
    ........@.......
    ........@.......
    .......@@@......
    ................


# [ｍ] FULLWIDTH LATIN SMALL LETTER M
u+ff4d:
0x828d:
    ................
    ................
    ................
    ................
    ................
    ...@.@@@..@@@...
    ..@@@...@@...@..
    ...@....@....@..
    ...@....@....@..
    ...@....@....@..
    ...@....@....@..
    ...@....@....@..
    ...@....@....@..
    ...@....@....@..
    ..@@@..@@@..@@@.
    ................


# [ｎ] FULLWIDTH LATIN SMALL LETTER N
u+ff4e:
0x828e:
    ................
    ................
    ................
    ................
    ................
    .....@..@@@.....
    ....@@.@...@....
    .....@@....@....
    .....@.....@....
    .....@.....@....
    .....@.....@....
    .....@.....@....
    .....@.....@....
    .....@.....@....
    ....@@@...@@@...
    ................


# [ｏ] FULLWIDTH LATIN SMALL LETTER O
u+ff4f:
0x828f:
    ................
    ................
    ................
    ................
    ................
    ......@@@@......
    .....@....@.....
    ....@......@....
    ....@......@....
    ....@......@....
    ....@......@....
    ....@......@....
    ....@......@....
    .....@....@.....
    ......@@@@......
    ................


# [ｐ] FULLWIDTH LATIN SMALL LETTER P
u+ff50:
0x8290:
    ................
    ................
    ................
    ................
    ................
    .....@.@@@@.....
    ....@@@....@....
    .....@......@...
    .....@......@...
    .....@......@...
    .....@......@...
    .....@@....@....
    .....@.@@@@.....
    .....@..........
    .....@..........
    ....@@@.........


# [ｑ] FULLWIDTH LATIN SMALL LETTER Q
u+ff51:
0x8291:
    ................
    ................
    ................
    ................
    ................
    ......@@@@.@....
    .....@....@@@...
    ....@......@....
    ....@......@....
    ....@......@....
    ....@......@....
    .....@....@@....
    ......@@@@.@....
    ...........@....
    ...........@....
    ..........@@@...


# [ｒ] FULLWIDTH LATIN SMALL LETTER R
u+ff52:
0x8292:
    ................
    ................
    ................
    ................
    ................
    .......@.@@.....
    ......@@@..@....
    .......@..@@....
    .......@........
    .......@........
    .......@........
    .......@........
    .......@........
    .......@........
    ......@@@.......
    ................


# [ｓ] FULLWIDTH LATIN SMALL LETTER S
u+ff53:
0x8293:
    ................
    ................
    ................
    ................
    ................
    ......@@@@.@....
    .....@....@@....
    .....@.....@....
    .....@..........
    ......@@@.......
    .........@@.....
    ...........@....
    .....@.....@....
    .....@@....@....
    .....@.@@@@.....
    ................


# [ｔ] FULLWIDTH LATIN SMALL LETTER T
u+ff54:
0x8294:
    ................
    .......@........
    .......@........
    .......@........
    ......@@........
    .....@@@@@......
    .......@........
    .......@........
    .......@........
    .......@........
    .......@........
    .......@........
    .......@........
    .......@..@.....
    ........@@......
    ................


# [ｕ] FULLWIDTH LATIN SMALL LETTER U
u+ff55:
0x8295:
    ................
    ................
    ................
    ................
    ................
    .....@.....@....
    ....@@....@@....
    .....@.....@....
    .....@.....@....
    .....@.....@....
    .....@.....@....
    .....@.....@....
    .....@.....@....
    ......@...@@....
    .......@@@.@@...
    ................


# [ｖ] FULLWIDTH LATIN SMALL LETTER V
u+ff56:
0x8296:
    ................
    ................
    ................
    ................
    ................
    ...@@@.....@@@..
    ....@.......@...
    .....@.....@....
    .....@.....@....
    ......@...@.....
    ......@...@.....
    .......@.@......
    .......@.@......
    ........@.......
    ........@.......
    ................


# [ｗ] FULLWIDTH LATIN SMALL LETTER W
u+ff57:
0x8297:
    ................
    ................
    ................
    ................
    ................
    ..@@@...@...@@@.
    ...@....@....@..
    ...@....@....@..
    ....@...@...@...
    ....@..@.@..@...
    ....@..@.@..@...
    ....@.@...@.@...
    .....@@...@@....
    .....@.....@....
    .....@.....@....
    ................


# [ｘ] FULLWIDTH LATIN SMALL LETTER X
u+ff58:
0x8298:
    ................
    ................
    ................
    ................
    ................
    ...@@@....@@@...
    ....@......@....
    .....@....@.....
    ......@..@......
    .......@@.......
    .......@@.......
    ......@..@......
    .....@....@.....
    ....@......@....
    ...@@@....@@@...
    ................


# [ｙ] FULLWIDTH LATIN SMALL LETTER Y
u+ff59:
0x8299:
    ................
    ................
    ................
    ................
    ................
    ...@@@....@@@...
    ....@......@....
    .....@....@.....
    .....@....@.....
    ......@..@......
    ......@..@......
    .......@@.......
    .......@@.......
    ....@@.@........
    ....@..@........
    .....@@.........


# [ｚ] FULLWIDTH LATIN SMALL LETTER Z
u+ff5a:
0x829a:
    ................
    ................
    ................
    ................
    ................
    ....@@@@@@@@....
    ....@.....@.....
    ....@....@......
    ........@.......
    .......@........
    .......@........
    ......@.........
    .....@.....@....
    ....@......@....
    ....@@@@@@@@....
    ................

0x829b:
    ................
    ................
    ................
    ................
    ................
    ................
    ................
    ................
    ................
    ................
    ................
    ................
    ................
    ................
    ................
    ................

0x829c:
    ................
    ................
    ................
    ................
    ................
    ................
    ................
    ................
    ................
    ................
    ................
    ................
    ................
    ................
    ................
    ................

0x829d:
    ................
    ................
    ................
    ................
    ................
    ................
    ................
    ................
    ................
    ................
    ................
    ................
    ................
    ................
    ................
    ................

0x829e:
    ................
    ................
    ................
    ................
    ................
    ................
    ................
    ................
    ................
    ................
    ................
    ................
    ................
    ................
    ................
    ................


# [ぁ] HIRAGANA LETTER SMALL A
u+3041:
0x829f:
    ................
    ................
    ................
    ................
    ......@@........
    .......@.@......
    .....@@@@.......
    .......@........
    ......@@@@@.....
    ....@@@..@.@....
    ....@.@.@...@...
    ...@..@.@...@...
    ...@..@@....@...
    ....@@.@...@....
    .........@@.....
    ................


# [あ] HIRAGANA LETTER A
u+3042:
0x82a0:
    ......@@........
    .......@........
    .......@.@@@....
    ...@@@@@@.......
    ......@.........
    ......@..@......
    ......@@@@@@....
    ....@@@..@..@@..
    ...@..@..@...@..
    ..@...@.@.....@.
    .@....@.@.....@.
    .@....@@......@.
    .@...@.@.....@..
    ..@@@.......@@..
    .........@@@....
    ................


# [ぃ] HIRAGANA LETTER SMALL I
u+3043:
0x82a1:
    ................
    ................
    ................
    ................
    ................
    ................
    ...@............
    ....@.....@.....
    ....@......@....
    ...@........@...
    ...@........@...
    ...@..@...@@@...
    ...@..@.....@...
    ....@@..........
    .....@@.........
    ................


# [い] HIRAGANA LETTER I
u+3044:
0x82a2:
    ................
    ................
    ..@.............
    ...@............
    ...@........@...
    ...@.........@..
    ..@...........@.
    ..@...........@.
    ..@............@
    ..@....@.......@
    ..@....@....@@@@
    ...@..@.......@.
    ...@..@.........
    ....@@..........
    .....@@.........
    ................


# [ぅ] HIRAGANA LETTER SMALL U
u+3045:
0x82a3:
    ................
    ................
    ................
    ................
    .......@........
    ........@@......
    .......@........
    ......@.@@@.....
    .....@@@...@....
    ......@....@....
    ...........@....
    ...........@....
    ..........@.....
    .........@......
    ........@.......
    ................


# [う] HIRAGANA LETTER U
u+3046:
0x82a4:
    ................
    .....@..........
    ......@@@@@.....
    .......@@.......
    ......@.........
    .....@..@@@.....
    ....@.@@...@....
    ...@@@......@...
    ....@.......@...
    ............@...
    ............@...
    ...........@....
    ...........@....
    ..........@.....
    ........@@......
    ......@@........


# [ぇ] HIRAGANA LETTER SMALL E
u+3047:
0x82a5:
    ................
    ................
    ................
    ................
    ................
    .......@........
    ........@@......
    ................
    .....@..@@@.....
    ......@@.@......
    ........@.......
    .......@@.......
    ......@..@......
    .....@...@......
    ....@.....@@@...
    ................


# [え] HIRAGANA LETTER E
u+3048:
0x82a6:
    ................
    ......@@........
    ........@@@.....
    .......@@.......
    ................
    ....@...@@@.....
    ....@@@@..@@....
    .........@......
    ........@.......
    .......@@.......
    ......@..@......
    .....@...@......
    ....@....@......
    ...@.....@......
    ...@......@@@@@.
    ................


# [ぉ] HIRAGANA LETTER SMALL O
u+3049:
0x82a7:
    ................
    ................
    ................
    ................
    ................
    .....@@.........
    ......@.........
    ......@@..@@....
    ...@@@@....@@...
    ......@..@@.....
    ......@@@..@....
    .....@@.@...@...
    ...@@.@.@...@...
    ....@.@.@..@....
    .....@@..@@.....
    ................


# [お] HIRAGANA LETTER O
u+304a:
0x82a8:
    ................
    ....@@..........
    .....@@.........
    .....@..........
    .....@.@...@@@..
    ..@@@@@......@@.
    .....@......@...
    .....@..@@@@@...
    .....@@@@....@..
    ....@@.@......@.
    .@.@.@.@......@.
    .@@..@.@......@.
    ...@.@..@....@..
    ....@@...@@@@...
    .....@..........
    ................


# [か] HIRAGANA LETTER KA
u+304b:
0x82a9:
    ................
    ....@@..........
    .....@@.........
    .....@..........
    .....@..........
    .@..@@@@..@@....
    ..@@@...@...@...
    ....@...@....@..
    ...@....@.....@.
    ...@....@.....@.
    ...@....@....@@.
    ..@.....@..@@.@.
    ..@.@..@........
    .@...@.@........
    .@....@.........
    ................


# [が] HIRAGANA LETTER GA
u+304c:
0x82aa:
    ................
    ....@@........@.
    .....@@........@
    .....@.......@..
    .....@........@.
    .@..@@@@..@@....
    ..@@@...@...@...
    ....@...@....@..
    ...@....@.....@.
    ...@....@.....@.
    ...@....@....@@.
    ..@.....@..@@.@.
    ..@.@..@........
    .@...@.@........
    .@....@.........
    ................


# [き] HIRAGANA LETTER KI
u+304d:
0x82ab:
    ................
    ......@@........
    .......@........
    ...@....@.@@....
    ....@@@@@@@.....
    ........@...@@..
    ..@......@@@@...
    ...@@@@@@@......
    ..........@.....
    .....@@@@.@.....
    ....@....@@@....
    ...@.......@....
    ...@............
    ....@...........
    .....@@@@@@.....
    ................


# [ぎ] HIRAGANA LETTER GI
u+304e:
0x82ac:
    ..............@.
    ......@@....@..@
    .......@.....@..
    ...@....@.@@....
    ....@@@@@@@.....
    ........@...@@..
    ..@......@@@@...
    ...@@@@@@@......
    ..........@.....
    .....@@@@.@.....
    ....@....@@@....
    ...@.......@....
    ...@............
    ....@...........
    .....@@@@@@.....
    ................


# [く] HIRAGANA LETTER KU
u+304f:
0x82ad:
    ................
    ........@@......
    .........@@.....
    ........@.......
    .......@........
    ......@.........
    .....@..........
    ....@...........
    ....@...........
    .....@@.........
    .......@........
    ........@.......
    .........@......
    ..........@.....
    ...........@....
    ...........@....


# [ぐ] HIRAGANA LETTER GU
u+3050:
0x82ae:
    ................
    ........@@......
    .........@@.....
    ........@...@...
    .......@..@..@..
    ......@....@....
    .....@..........
    ....@...........
    ....@...........
    .....@@.........
    .......@........
    ........@.......
    .........@......
    ..........@.....
    ...........@....
    ...........@....


# [け] HIRAGANA LETTER KE
u+3051:
0x82af:
    ................
    ...........@@...
    ..@@........@...
    ...@@.......@@..
    ...@...@....@.@@
    ...@....@@@@@@@.
    ..@.........@...
    ..@.........@...
    ..@.........@...
    ..@..@......@...
    ..@.@.......@...
    ..@.@......@....
    ...@.......@....
    ...@......@.....
    ........@@......
    ................


# [げ] HIRAGANA LETTER GE
u+3052:
0x82b0:
    ............@.@.
    ..........@@.@.@
    ..@@.......@....
    ...@@......@@...
    ...@..@....@.@@.
    ...@...@@@@@@@..
    ..@........@....
    ..@........@....
    ..@........@....
    ..@..@.....@....
    ..@.@......@....
    ..@.@.....@.....
    ...@......@.....
    ...@.....@......
    .......@@.......
    ................


# [こ] HIRAGANA LETTER KO
u+3053:
0x82b1:
    ................
    ................
    .....@.....@@...
    ......@@@@@@....
    ........@.......
    ................
    ................
    ................
    ....@...........
    ...@............
    ...@............
    ...@............
    ....@.......@@..
    .....@@@@@@@@...
    ................
    ................


# [ご] HIRAGANA LETTER GO
u+3054:
0x82b2:
    ..............@.
    ............@..@
    .....@....@@.@..
    ......@@@@@.....
    ........@.......
    ................
    ................
    ................
    ....@...........
    ...@............
    ...@............
    ...@............
    ....@.......@@..
    .....@@@@@@@@...
    ................
    ................


# [さ] HIRAGANA LETTER SA
u+3055:
0x82b3:
    ................
    .......@@.......
    .........@.@....
    .........@..@@..
    ...@......@@@...
    ....@@@@@@@.....
    ..........@.....
    ...........@....
    ......@@@@.@....
    .....@....@@@...
    ....@.......@...
    ....@...........
    ....@...........
    .....@..........
    ......@@@@@@....
    ................


# [ざ] HIRAGANA LETTER ZA
u+3056:
0x82b4:
    ............@.@.
    .......@@....@.@
    .........@.@....
    .........@..@@..
    ...@......@@@...
    ....@@@@@@@.....
    ..........@.....
    ...........@....
    ......@@@@.@....
    .....@....@@@...
    ....@.......@...
    ....@...........
    ....@...........
    .....@..........
    ......@@@@@@....
    ................


# [し] HIRAGANA LETTER SI
u+3057:
0x82b5:
    ................
    ....@@..........
    .....@@.........
    .....@..........
    .....@..........
    .....@..........
    ....@...........
    ....@...........
    ....@...........
    ....@........@..
    ....@........@..
    ....@.......@...
    ....@.......@...
    .....@....@@....
    ......@@@@......
    ................


# [じ] HIRAGANA LETTER ZI
u+3058:
0x82b6:
    ................
    ....@@..........
    .....@@....@....
    .....@...@..@...
    .....@....@.....
    .....@..........
    ....@...........
    ....@...........
    ....@...........
    ....@........@..
    ....@........@..
    ....@.......@...
    ....@.......@...
    .....@....@@....
    ......@@@@......
    ................


# [す] HIRAGANA LETTER SU
u+3059:
0x82b7:
    ................
    .......@@.......
    ........@.......
    .@.....@@@@@@@@.
    ..@@@@@.@.......
    ........@.......
    ......@@@.......
    .....@...@......
    .....@...@......
    .....@..@@......
    ......@@.@......
    .........@......
    ........@.......
    .......@@.......
    .....@@.........
    ................


# [ず] HIRAGANA LETTER ZU
u+305a:
0x82b8:
    ............@.@.
    .......@@....@.@
    ........@.......
    .@.....@@@@@@@@.
    ..@@@@@.@.......
    ........@.......
    ......@@@.......
    .....@...@......
    .....@...@......
    .....@..@@......
    ......@@.@......
    .........@......
    ........@.......
    .......@@.......
    .....@@.........
    ................


# [せ] HIRAGANA LETTER SE
u+305b:
0x82b9:
    ................
    ..........@@....
    ....@@.....@@...
    .....@@....@....
    .....@.....@....
    .....@...@@@@@@.
    .@...@@@@..@...@
    ..@@@@.....@....
    .....@.....@....
    .....@..@@@@....
    .....@....@.....
    .....@..........
    .....@..........
    ......@.....@@..
    .......@@@@@@...
    ................


# [ぜ] HIRAGANA LETTER ZE
u+305c:
0x82ba:
    ..............@.
    ..........@@...@
    ....@@.....@@.@.
    .....@@....@...@
    .....@.....@....
    .....@...@@@@@@.
    .@...@@@@..@...@
    ..@@@@.....@....
    .....@.....@....
    .....@..@@@@....
    .....@....@.....
    .....@..........
    .....@..........
    ......@.....@@..
    .......@@@@@@...
    ................


# [そ] HIRAGANA LETTER SO
u+305d:
0x82bb:
    ................
    ....@...@@@.....
    .....@@@..@@....
    .........@@.....
    ........@.......
    ......@@........
    ....@@....@@@@@.
    ..@@..@@@@......
    .@@@@@..@.......
    .......@........
    ......@.........
    ......@.........
    ......@.........
    .......@........
    ........@@@@....
    ................


# [ぞ] HIRAGANA LETTER ZO
u+305e:
0x82bc:
    ................
    ....@...@@@.....
    .....@@@..@@..@.
    .........@@.@..@
    ........@....@..
    ......@@........
    ....@@....@@@@@.
    ..@@..@@@@......
    .@@@@@..@.......
    .......@........
    ......@.........
    ......@.........
    ......@.........
    .......@........
    ........@@@@....
    ................


# [た] HIRAGANA LETTER TA
u+305f:
0x82bd:
    ................
    ....@@..........
    .....@..........
    .@...@@@........
    ..@@@@@.........
    ....@...@....@..
    ....@....@@@@...
    ....@...........
    ...@....@.......
    ...@...@........
    ...@...@........
    ..@....@........
    ..@.....@....@@.
    .@.......@@@@@..
    .@..............
    ................


# [だ] HIRAGANA LETTER DA
u+3060:
0x82be:
    .............@..
    ....@@.....@..@.
    .....@......@...
    .@...@@@........
    ..@@@@@.........
    ....@...@....@..
    ....@....@@@@...
    ....@...........
    ...@....@.......
    ...@...@........
    ...@...@........
    ..@....@........
    ..@.....@....@@.
    .@.......@@@@@..
    .@..............
    ................


# [ち] HIRAGANA LETTER TI
u+3061:
0x82bf:
    ................
    .....@@.........
    ......@.........
    ......@...@@....
    ...@@@@@@@......
    ......@.........
    .....@..........
    .....@..@@@@....
    .....@@@....@...
    ....@@.......@..
    ....@........@..
    .............@..
    ............@...
    ..........@@....
    .......@@@......
    ................


# [ぢ] HIRAGANA LETTER DI
u+3062:
0x82c0:
    ................
    .....@@.......@.
    ......@.....@..@
    ......@...@@.@..
    ...@@@@@@@......
    ......@.........
    .....@..........
    .....@..@@@@....
    .....@@@....@...
    ....@@.......@..
    ....@........@..
    .............@..
    ............@...
    ..........@@....
    .......@@@......
    ................


# [っ] HIRAGANA LETTER SMALL TU
u+3063:
0x82c1:
    ................
    ................
    ................
    ................
    ................
    ................
    ................
    .......@@@@.....
    ...@.@@....@....
    ....@.......@...
    ............@...
    ...........@....
    ..........@@....
    .......@@@......
    ................
    ................


# [つ] HIRAGANA LETTER TU
u+3064:
0x82c2:
    ................
    ................
    ................
    ................
    .......@@@@@@...
    .@..@@@......@..
    ..@@..........@.
    ..............@.
    ..............@.
    ..............@.
    .............@..
    .............@..
    ...........@@...
    .......@@@@.....
    ................
    ................


# [づ] HIRAGANA LETTER DU
u+3065:
0x82c3:
    ................
    ..............@.
    ............@..@
    .............@..
    .......@@@@@@...
    .@..@@@......@..
    ..@@..........@.
    ..............@.
    ..............@.
    ..............@.
    .............@..
    .............@..
    ...........@@...
    .......@@@@.....
    ................
    ................


# [て] HIRAGANA LETTER TE
u+3066:
0x82c4:
    ................
    ................
    ..........@@@@@.
    ..@...@@@@@@....
    ...@@@...@......
    ........@.......
    .......@........
    .......@........
    ......@.........
    ......@.........
    ......@.........
    .......@........
    .......@........
    ........@@......
    ..........@@@...
    ................


# [で] HIRAGANA LETTER DE
u+3067:
0x82c5:
    ................
    ................
    ..........@@@@@.
    ..@...@@@@@@....
    ...@@@...@....@.
    ........@...@..@
    .......@.....@..
    .......@........
    ......@.........
    ......@.........
    ......@.........
    .......@........
    .......@........
    ........@@......
    ..........@@@...
    ................


# [と] HIRAGANA LETTER TO
u+3068:
0x82c6:
    ................
    .....@@.........
    ......@@........
    ......@.........
    ......@.........
    ......@.........
    ......@...@@....
    .......@@@......
    .....@@.........
    ....@...........
    ...@............
    ...@............
    ...@............
    ....@......@@...
    .....@@@@@@.....
    ................


# [ど] HIRAGANA LETTER DO
u+3069:
0x82c7:
    ................
    .....@@......@..
    ......@@...@..@.
    ......@.....@...
    ......@.........
    ......@.........
    ......@...@@....
    .......@@@......
    .....@@.........
    ....@...........
    ...@............
    ...@............
    ...@............
    ....@......@@...
    .....@@@@@@.....
    ................


# [な] HIRAGANA LETTER NA
u+306a:
0x82c8:
    ................
    ....@@..........
    .....@..........
    .....@.@@.......
    .@@@@@@...@@....
    ....@.......@@..
    ....@......@..@.
    ...@......@.....
    ...@......@.....
    ..@.......@.....
    ..@.......@.....
    .@.....@@@@.....
    .@....@...@@....
    ......@...@.@...
    .......@@@...@..
    ................


# [に] HIRAGANA LETTER NI
u+306b:
0x82c9:
    ................
    ..@.............
    ...@...@....@@..
    ...@....@@@@@...
    ...@......@.....
    ..@.............
    ..@.............
    ..@.....@.......
    ..@....@........
    ..@..@.@........
    ..@.@..@........
    ..@.@..@........
    ..@@@...@....@@.
    ...@.....@@@@@..
    ...@............
    ................


# [ぬ] HIRAGANA LETTER NU
u+306c:
0x82ca:
    ................
    .......@........
    ........@.......
    .@......@.......
    ..@....@@@@@....
    ..@..@@@....@@..
    ...@@..@.....@..
    ...@...@......@.
    ..@@..@.......@.
    ..@.@.@.......@.
    .@..@.@.......@.
    .@..@@...@@@..@.
    .@...@..@...@@..
    .@..@.@.@....@..
    ..@@.....@@@@.@.
    ................


# [ね] HIRAGANA LETTER NE
u+306d:
0x82cb:
    ................
    ....@...........
    .....@..........
    .....@..........
    .....@@...@@@...
    ..@@@@..@@...@..
    .....@.@......@.
    .....@@.......@.
    ....@@........@.
    ....@@........@.
    ...@.@........@.
    ..@..@....@@@.@.
    ..@..@...@...@@.
    ....@@...@...@@.
    .....@....@@@..@
    ................


# [の] HIRAGANA LETTER NO
u+306e:
0x82cc:
    ................
    ................
    ......@@@@@.....
    ....@@.@...@@...
    ...@...@.....@..
    ..@....@.....@..
    ..@....@......@.
    .@.....@......@.
    .@.....@......@.
    .@....@.......@.
    .@....@......@..
    .@....@......@..
    ..@..@......@...
    ...@@.....@@....
    ........@@......
    ................


# [は] HIRAGANA LETTER HA
u+306f:
0x82cd:
    ................
    ..@........@....
    ...@........@...
    ...@....@...@.@@
    ...@.....@@@@@..
    ..@.........@...
    ..@.........@...
    ..@.........@...
    ..@.........@...
    ..@..@......@...
    ..@.@....@@@@...
    ..@.@...@...@@..
    ..@@....@...@.@.
    ...@.....@@@...@
    ...@............
    ................


# [ば] HIRAGANA LETTER BA
u+3070:
0x82ce:
    ..............@.
    ..@.......@.@..@
    ...@.......@.@..
    ...@...@...@.@@.
    ...@....@@@@@...
    ..@........@....
    ..@........@....
    ..@........@....
    ..@........@....
    ..@..@.....@....
    ..@.@...@@@@....
    ..@.@..@...@@...
    ..@@...@...@.@..
    ...@....@@@...@.
    ...@............
    ................


# [ぱ] HIRAGANA LETTER PA
u+3071:
0x82cf:
    .............@@.
    ..@.......@.@..@
    ...@.......@@..@
    ...@...@...@.@@.
    ...@....@@@@@@..
    ..@........@....
    ..@........@....
    ..@........@....
    ..@........@....
    ..@..@.....@....
    ..@.@...@@@@....
    ..@.@..@...@@...
    ..@@...@...@.@..
    ...@....@@@...@.
    ...@............
    ................


# [ひ] HIRAGANA LETTER HI
u+3072:
0x82d0:
    ................
    ................
    .@..@@@...@.....
    ..@@..@@..@@....
    .....@.....@....
    ....@......@@...
    ...@.......@.@..
    ...@.......@..@.
    ..@........@.@.@
    ..@........@....
    ..@........@....
    ..@.......@.....
    ..@.......@.....
    ...@....@@......
    ....@@@@........
    ................


# [び] HIRAGANA LETTER BI
u+3073:
0x82d1:
    ..............@.
    ............@..@
    .@..@@@...@..@..
    ..@@..@@..@@....
    .....@.....@....
    ....@......@@...
    ...@.......@.@..
    ...@.......@..@.
    ..@........@.@.@
    ..@........@....
    ..@........@....
    ..@.......@.....
    ..@.......@.....
    ...@....@@......
    ....@@@@........
    ................


# [ぴ] HIRAGANA LETTER PI
u+3074:
0x82d2:
    .............@@.
    ............@..@
    .@..@@@...@.@..@
    ..@@..@@..@@.@@.
    .....@.....@....
    ....@......@@...
    ...@.......@.@..
    ...@.......@..@.
    ..@........@.@.@
    ..@........@....
    ..@........@....
    ..@.......@.....
    ..@.......@.....
    ...@....@@......
    ....@@@@........
    ................


# [ふ] HIRAGANA LETTER HU
u+3075:
0x82d3:
    ................
    ......@.........
    .......@........
    ........@@......
    .......@.@@.....
    ......@.........
    ......@.........
    ......@.........
    .......@........
    ......@@@@@@....
    ....@@..@...@@..
    ...@.....@....@.
    .@.@.....@...@@@
    .@@..@...@..@..@
    ......@@@.......
    ................


# [ぶ] HIRAGANA LETTER BU
u+3076:
0x82d4:
    ................
    ......@.........
    .......@........
    ........@@......
    .......@.@@.....
    ......@.......@.
    ......@.....@..@
    ......@......@..
    .......@........
    ......@@@@@@....
    ....@@..@...@@..
    ...@.....@....@.
    .@.@.....@...@@@
    .@@..@...@..@..@
    ......@@@.......
    ................


# [ぷ] HIRAGANA LETTER PU
u+3077:
0x82d5:
    ................
    ......@.........
    .......@........
    ........@@...@@.
    .......@.@@.@..@
    ......@.....@..@
    ......@......@@.
    ......@.........
    .......@........
    ......@@@@@@....
    ....@@..@...@@..
    ...@.....@....@.
    .@.@.....@...@@@
    .@@..@...@..@..@
    ......@@@.......
    ................


# [へ] HIRAGANA LETTER HE
u+3078:
0x82d6:
    ................
    ................
    ................
    ................
    ......@@........
    .....@..@.......
    ....@....@......
    .@.@......@.....
    .@@........@....
    ............@...
    .............@..
    ..............@@
    ................
    ................
    ................
    ................


# [べ] HIRAGANA LETTER BE
u+3079:
0x82d7:
    ................
    ................
    ................
    ..............@.
    ......@@....@..@
    .....@..@....@..
    ....@....@......
    .@.@......@.....
    .@@........@....
    ............@...
    .............@..
    ..............@@
    ................
    ................
    ................
    ................


# [ぺ] HIRAGANA LETTER PE
u+307a:
0x82d8:
    ................
    ................
    ................
    ............@@..
    ......@@...@..@.
    .....@..@..@..@.
    ....@....@..@@..
    .@.@......@.....
    .@@........@....
    ............@...
    .............@..
    ..............@@
    ................
    ................
    ................
    ................


# [ほ] HIRAGANA LETTER HO
u+307b:
0x82d9:
    ................
    ..@..........@..
    ...@...@@@@@@...
    ...@.......@....
    ...@.......@@...
    ..@....@...@.@@.
    ..@.....@@@@@...
    ..@........@....
    ..@........@....
    ..@..@.....@....
    ..@.@...@@@@....
    ..@.@..@...@@...
    ..@@...@...@.@..
    ...@....@@@...@.
    ...@............
    ................


# [ぼ] HIRAGANA LETTER BO
u+307c:
0x82da:
    ..............@.
    ..@.........@..@
    ...@...@@@@@.@..
    ...@.......@....
    ...@.......@@...
    ..@....@...@.@@.
    ..@.....@@@@@...
    ..@........@....
    ..@........@....
    ..@..@.....@....
    ..@.@...@@@@....
    ..@.@..@...@@...
    ..@@...@...@.@..
    ...@....@@@...@.
    ...@............
    ................


# [ぽ] HIRAGANA LETTER PO
u+307d:
0x82db:
    .............@@.
    ..@.........@..@
    ...@...@@@@@@..@
    ...@.......@.@@.
    ...@.......@@...
    ..@....@...@.@@.
    ..@.....@@@@@...
    ..@........@....
    ..@........@....
    ..@..@.....@....
    ..@.@...@@@@....
    ..@.@..@...@@...
    ..@@...@...@.@..
    ...@....@@@...@.
    ...@............
    ................


# [ま] HIRAGANA LETTER MA
u+307e:
0x82dc:
    ................
    .......@........
    ........@...@@..
    ..@.....@@@@....
    ...@@@@@@.......
    .....@..@.@@....
    ....@...@...@@..
    ...@....@.@@@...
    ....@@@@@@......
    ........@.......
    ........@.......
    ....@@@@@.......
    ...@....@@@.....
    ...@....@..@@...
    ....@@@@.....@..
    ................


# [み] HIRAGANA LETTER MI
u+307f:
0x82dd:
    ................
    ................
    ...@..@@@.......
    ....@@..@@......
    ........@.......
    .......@........
    .......@....@...
    .....@@@....@...
    ...@@.@.@@..@...
    ..@...@...@@@...
    .@...@......@@..
    .@...@.....@..@.
    .@..@......@....
    ..@@......@.....
    .........@......
    ................


# [む] HIRAGANA LETTER MU
u+3080:
0x82de:
    ................
    ....@...........
    .....@..........
    .....@@@........
    .@@@@@@....@@...
    ....@.....@..@..
    ..@@@.....@...@.
    .@..@.....@..@@.
    .@..@......@..@.
    .@.@@......@....
    ..@@.......@....
    ...@........@...
    ...@........@...
    ...@........@...
    ....@@@@@@@@....
    ................


# [め] HIRAGANA LETTER ME
u+3081:
0x82df:
    ................
    ........@.......
    ..@......@......
    ...@.....@......
    ...@..@@@@@@....
    ....@@...@..@@..
    ...@@...@....@..
    ..@.@...@.....@.
    ..@..@.@......@.
    .@...@.@......@.
    .@....@.......@.
    .@...@@......@..
    .@..@..@.....@..
    ..@@.......@@...
    .........@@.....
    ................


# [も] HIRAGANA LETTER MO
u+3082:
0x82e0:
    ................
    ......@@........
    .......@@.......
    ...@...@........
    ....@@@@@.......
    ....@..@........
    ...@..@.........
    ...@..@....@....
    ....@@@@@...@...
    .....@......@...
    .....@.......@..
    .....@.......@..
    .....@.......@..
    ......@.....@...
    .......@@@@@....
    ................


# [ゃ] HIRAGANA LETTER SMALL YA
u+3083:
0x82e1:
    ................
    ................
    ................
    ................
    ........@.......
    .........@......
    .....@@@@@......
    .....@..@@@@....
    ...@.@@@....@...
    ....@.@.....@...
    ......@.....@...
    ......@..@@@....
    .......@........
    .......@........
    .......@........
    ................


# [や] HIRAGANA LETTER YA
u+3084:
0x82e2:
    ........@.......
    .........@......
    ....@@@@.@......
    ...@....@@@@@...
    ....@..@@....@..
    ....@@@.......@.
    .@.@.@........@.
    ..@..@........@.
    .....@...@...@..
    ......@...@@@...
    ......@.........
    ......@.........
    .......@........
    .......@........
    .......@........
    ................


# [ゅ] HIRAGANA LETTER SMALL YU
u+3085:
0x82e3:
    ................
    ................
    ................
    ................
    ................
    ........@@......
    ....@..@.@@@....
    .....@.@@.@.@...
    ....@..@..@..@..
    ....@.@@..@..@..
    ....@@.@..@..@..
    ....@@.@..@..@..
    .....@..@@@@@...
    .....@...@@.....
    .......@@.......
    ................


# [ゆ] HIRAGANA LETTER YU
u+3086:
0x82e4:
    ................
    ........@@......
    ..@....@..@.....
    ...@...@.@@@@@..
    ...@..@.@..@..@.
    ...@..@@...@...@
    ..@..@@....@...@
    ..@..@@....@...@
    ..@.@.@....@...@
    ..@.@.@....@...@
    ..@.@..@...@..@.
    ..@@....@.@..@@.
    ...@.....@@@@...
    ...@......@.....
    .........@......
    ........@.......


# [ょ] HIRAGANA LETTER SMALL YO
u+3087:
0x82e5:
    ................
    ................
    ................
    ................
    ................
    .......@........
    ........@.......
    ........@.......
    ........@@@@....
    ........@.......
    ........@.......
    ........@.......
    .....@@@@.......
    ....@...@@@.....
    .....@@@...@....
    ................


# [よ] HIRAGANA LETTER YO
u+3088:
0x82e6:
    ................
    .......@@.......
    ........@@......
    ........@.......
    ........@...@@..
    ........@@@@@...
    ........@.......
    ........@.......
    ........@.......
    ........@.......
    ........@.......
    ...@@@@@@.......
    ..@.....@@@.....
    ..@.....@..@@...
    ...@@@@@.....@..
    ................


# [ら] HIRAGANA LETTER RA
u+3089:
0x82e7:
    ................
    .....@..........
    ......@@@@......
    .....@@.........
    ....@...........
    ....@...........
    ....@...........
    ...@...@@@@@....
    ...@.@@.....@...
    ...@@........@..
    ...@.........@..
    .............@..
    ............@...
    ..........@@....
    ......@@@@......
    ................


# [り] HIRAGANA LETTER RI
u+308a:
0x82e8:
    ................
    ....@...........
    .....@...@@.....
    .....@..@..@....
    ....@..@....@...
    ....@.@.....@...
    ....@.@.....@...
    ....@@......@...
    ....@@......@...
    .....@......@...
    ............@...
    ...........@....
    ...........@....
    .........@@.....
    .......@@.......
    ................


# [る] HIRAGANA LETTER RU
u+308b:
0x82e9:
    ................
    ....@..@@@......
    .....@@..@@.....
    .........@......
    ........@.......
    .......@........
    ......@.........
    .....@@@@@@.....
    ....@@.....@@...
    ...@........@...
    ..@..........@..
    ......@@.....@..
    .....@..@...@...
    .....@...@.@@...
    ......@@@@@.....
    ................


# [れ] HIRAGANA LETTER RE
u+308c:
0x82ea:
    ................
    ...@@...........
    ....@@..........
    ....@...........
    ....@@...@@@....
    .@@@@..@@...@...
    ....@.@.....@...
    ....@@......@...
    ...@@.......@...
    ...@@.......@...
    ..@.@.......@...
    .@..@.......@...
    .@..@.......@..@
    ...@@........@@.
    ....@...........
    ................


# [ろ] HIRAGANA LETTER RO
u+308d:
0x82eb:
    ................
    ....@..@@@......
    .....@@..@@.....
    .........@......
    ........@.......
    .......@........
    ......@.........
    .....@@@@@@@....
    ....@@......@...
    ...@.........@..
    ..@..........@..
    .............@..
    ............@...
    ...........@@...
    ......@@@@@.....
    ................


# [ゎ] HIRAGANA LETTER SMALL WA
u+308e:
0x82ec:
    ................
    ................
    ................
    ................
    ................
    ................
    .....@@.........
    ......@@........
    ....@@@.@@@@....
    ......@@....@...
    ......@......@..
    .....@@......@..
    ....@.@......@..
    .....@@.....@...
    ......@...@@....
    ................


# [わ] HIRAGANA LETTER WA
u+308f:
0x82ed:
    ................
    ...@............
    ....@...........
    ....@@..........
    .@@@@...@@@@....
    ....@.@@....@@..
    ....@@.......@..
    ...@@.........@.
    ...@@.........@.
    ..@.@.........@.
    .@..@........@..
    .@..@........@..
    ...@@......@@...
    ....@....@@.....
    ....@...........
    ................


# [ゐ] HIRAGANA LETTER WI
u+3090:
0x82ee:
    ................
    ...@...@@.......
    ....@@@.@@......
    ........@.......
    .......@........
    .......@@@@.....
    .....@@@...@@...
    ....@..@.....@..
    ...@..@.......@.
    ..@...@.......@.
    ..@..@........@.
    .@...@..@@....@.
    .@..@..@..@..@..
    ..@@...@...@@@..
    ........@@@@....
    ................


# [ゑ] HIRAGANA LETTER WE
u+3091:
0x82ef:
    ................
    ....@..@@@@.....
    .....@@.@@......
    .......@........
    ......@@@@@.....
    .....@@....@....
    ....@.......@...
    ...@..@@....@...
    .....@..@..@....
    ......@@@@@.....
    .....@@.........
    ....@.....@@@...
    ...@@@...@...@..
    ..@...@.@....@@.
    .@.....@...@@.@.
    ................


# [を] HIRAGANA LETTER WO
u+3092:
0x82f0:
    ................
    ......@@........
    .......@.@@@....
    ..@....@@@......
    ...@@@@.........
    ......@.....@...
    .....@@@.....@..
    ....@...@...@@..
    ...@....@.@@....
    ..@....@@@......
    ......@.@.......
    .....@..@.......
    .....@..........
    .....@..........
    ......@@@@@@@...
    ................


# [ん] HIRAGANA LETTER N
u+3093:
0x82f1:
    ................
    ......@@........
    .......@@.......
    .......@........
    ......@.........
    ......@.........
    .....@..........
    ....@...........
    ....@@@@........
    ...@@...@.......
    ...@....@.......
    ..@......@....@.
    ..@......@....@.
    .@.......@...@..
    .@........@@@...
    ................

0x82f2:
    ................
    ................
    ................
    ................
    ................
    ................
    ................
    ................
    ................
    ................
    ................
    ................
    ................
    ................
    ................
    ................

0x82f3:
    ................
    ................
    ................
    ................
    ................
    ................
    ................
    ................
    ................
    ................
    ................
    ................
    ................
    ................
    ................
    ................

0x82f4:
    ................
    ................
    ................
    ................
    ................
    ................
    ................
    ................
    ................
    ................
    ................
    ................
    ................
    ................
    ................
    ................

0x82f5:
    ................
    ................
    ................
    ................
    ................
    ................
    ................
    ................
    ................
    ................
    ................
    ................
    ................
    ................
    ................
    ................

0x82f6:
    ................
    ................
    ................
    ................
    ................
    ................
    ................
    ................
    ................
    ................
    ................
    ................
    ................
    ................
    ................
    ................

0x82f7:
    ................
    ................
    ................
    ................
    ................
    ................
    ................
    ................
    ................
    ................
    ................
    ................
    ................
    ................
    ................
    ................

0x82f8:
    ................
    ................
    ................
    ................
    ................
    ................
    ................
    ................
    ................
    ................
    ................
    ................
    ................
    ................
    ................
    ................

0x82f9:
    ................
    ................
    ................
    ................
    ................
    ................
    ................
    ................
    ................
    ................
    ................
    ................
    ................
    ................
    ................
    ................

0x82fa:
    ................
    ................
    ................
    ................
    ................
    ................
    ................
    ................
    ................
    ................
    ................
    ................
    ................
    ................
    ................
    ................

0x82fb:
    ................
    ................
    ................
    ................
    ................
    ................
    ................
    ................
    ................
    ................
    ................
    ................
    ................
    ................
    ................
    ................

0x82fc:
    ................
    ................
    ................
    ................
    ................
    ................
    ................
    ................
    ................
    ................
    ................
    ................
    ................
    ................
    ................
    ................


# [ァ] KATAKANA LETTER SMALL A
u+30a1:
0x8340:
    ................
    ................
    ................
    ................
    ................
    ................
    ...@...@@@@@....
    ....@@@....@@...
    ..........@.....
    .......@@@......
    ........@.......
    .......@........
    .......@........
    ......@.........
    .....@..........
    ................


# [ア] KATAKANA LETTER A
u+30a2:
0x8341:
    ................
    ................
    .@......@@@@@@..
    ..@@@@@@.....@@.
    ............@...
    ...........@....
    .......@..@.....
    ........@@......
    ........@.......
    ........@.......
    .......@........
    .......@........
    ......@.........
    .....@..........
    ....@...........
    ................


# [ィ] KATAKANA LETTER SMALL I
u+30a3:
0x8342:
    ................
    ................
    ................
    ................
    ................
    .........@......
    ..........@.....
    .........@......
    ........@.......
    .......@@.......
    ......@.@.......
    ....@@..@.......
    ........@.......
    ........@.......
    ........@.......
    ................


# [イ] KATAKANA LETTER I
u+30a4:
0x8343:
    ................
    ..........@.....
    ...........@....
    ..........@.....
    .........@......
    ........@.......
    .......@@@......
    ......@.@.......
    ....@@..@.......
    ..@@....@.......
    ........@.......
    ........@.......
    ........@.......
    ........@.......
    ........@.......
    ........@.......


# [ゥ] KATAKANA LETTER SMALL U
u+30a5:
0x8344:
    ................
    ................
    ................
    ................
    ................
    .......@@.......
    ........@.......
    ....@...@@@@@...
    .....@@@....@...
    .....@......@...
    .....@......@...
    ...........@....
    ...........@....
    .........@@.....
    .......@@.......
    ................


# [ウ] KATAKANA LETTER U
u+30a6:
0x8345:
    ................
    ......@@........
    .......@@.......
    .......@........
    ..@....@@@@@@...
    ...@@@@@....@@..
    ...@........@...
    ...@........@...
    ...@........@...
    ...........@....
    ...........@....
    ..........@.....
    .........@......
    .......@@.......
    .....@@.........
    ................


# [ェ] KATAKANA LETTER SMALL E
u+30a7:
0x8346:
    ................
    ................
    ................
    ................
    ................
    ................
    ................
    .....@....@@....
    ......@@@@......
    ........@.......
    ........@.......
    ........@.......
    ....@...@@@@@...
    .....@@@.....@..
    ................
    ................


# [エ] KATAKANA LETTER E
u+30a8:
0x8347:
    ................
    ................
    ................
    ....@...@@@@@...
    .....@@@@.......
    ........@.......
    ........@.......
    ........@.......
    ........@.......
    ........@.......
    ........@.......
    ..@...@@@@@@@@@.
    ...@@@.........@
    ................
    ................
    ................


# [ォ] KATAKANA LETTER SMALL O
u+30a9:
0x8348:
    ................
    ................
    ................
    ................
    ................
    ........@.......
    .........@......
    ....@....@@@@...
    .....@@@@@......
    ........@@......
    .......@.@......
    ......@..@......
    .....@...@......
    ....@..@.@......
    ........@@......
    ................


# [オ] KATAKANA LETTER O
u+30aa:
0x8349:
    ................
    ........@.......
    .........@......
    .........@......
    .@.......@@@@@..
    ..@@@@@@@@....@.
    ........@@......
    .......@.@......
    .......@.@......
    ......@..@......
    .....@...@......
    ...@@....@......
    .@@...@..@......
    .......@.@......
    ........@.......
    ................


# [カ] KATAKANA LETTER KA
u+30ab:
0x834a:
    ................
    ......@@........
    .......@@.......
    .......@........
    ..@....@.@@@@@..
    ...@@@@@@....@@.
    .......@.....@..
    ......@......@..
    ......@......@..
    .....@.......@..
    .....@.......@..
    ....@.......@...
    ...@....@...@...
    ..@......@.@....
    ..........@.....
    ................


# [ガ] KATAKANA LETTER GA
u+30ac:
0x834b:
    ..............@.
    ......@@....@..@
    .......@@....@..
    .......@........
    ..@....@.@@@@@..
    ...@@@@@@....@@.
    .......@.....@..
    ......@......@..
    ......@......@..
    .....@.......@..
    .....@.......@..
    ....@.......@...
    ...@....@...@...
    ..@......@.@....
    ..........@.....
    ................


# [キ] KATAKANA LETTER KI
u+30ad:
0x834c:
    ................
    ......@@........
    .......@@.......
    .......@..@@@...
    ..@...@@@@......
    ...@@@.@........
    ........@.......
    ........@.@@@@@.
    .@....@@@@......
    ..@@@@..@.......
    ........@.......
    .........@......
    .........@......
    .........@......
    .........@......
    ................


# [ギ] KATAKANA LETTER GI
u+30ae:
0x834d:
    ..............@.
    ......@@....@..@
    .......@@....@..
    .......@..@@@...
    ..@...@@@@......
    ...@@@.@........
    ........@.......
    ........@.@@@@@.
    .@....@@@@......
    ..@@@@..@.......
    ........@.......
    .........@......
    .........@......
    .........@......
    .........@......
    ................


# [ク] KATAKANA LETTER KU
u+30af:
0x834e:
    ................
    ......@.........
    .......@........
    .......@..@@@...
    ......@@@@..@@..
    ......@.....@...
    .....@......@...
    ....@......@....
    ...@.......@....
    ..........@.....
    ..........@.....
    .........@......
    ........@.......
    ......@@........
    ....@@..........
    ................


# [グ] KATAKANA LETTER GU
u+30b0:
0x834f:
    ..............@.
    ......@.....@..@
    .......@.....@..
    .......@..@@@...
    ......@@@@..@@..
    ......@.....@...
    .....@......@...
    ....@......@....
    ...@.......@....
    ..........@.....
    ..........@.....
    .........@......
    ........@.......
    ......@@........
    ....@@..........
    ................


# [ケ] KATAKANA LETTER KE
u+30b1:
0x8350:
    ................
    ....@@..........
    .....@@.........
    .....@..........
    ....@...@@@@@@..
    ....@@@@.@....@.
    ...@.....@......
    ..@......@......
    .@.......@......
    .........@......
    ........@.......
    ........@.......
    .......@........
    ......@.........
    ....@@..........
    ................


# [ゲ] KATAKANA LETTER GE
u+30b2:
0x8351:
    ..............@.
    ....@@......@..@
    .....@@......@..
    .....@..........
    ....@...@@@@@@..
    ....@@@@.@....@.
    ...@.....@......
    ..@......@......
    .@.......@......
    .........@......
    ........@.......
    ........@.......
    .......@........
    ......@.........
    ....@@..........
    ................


# [コ] KATAKANA LETTER KO
u+30b3:
0x8352:
    ................
    ................
    ................
    ..@.....@@@@@...
    ...@@@@@....@@..
    ............@...
    ............@...
    ............@...
    ...........@....
    ...........@....
    ...........@....
    ..@.....@@@@@...
    ...@@@@@.....@..
    ................
    ................
    ................


# [ゴ] KATAKANA LETTER GO
u+30b4:
0x8353:
    ..............@.
    ............@..@
    .............@..
    ..@.....@@@@@...
    ...@@@@@....@@..
    ............@...
    ............@...
    ............@...
    ...........@....
    ...........@....
    ...........@....
    ..@.....@@@@@...
    ...@@@@@.....@..
    ................
    ................
    ................


# [サ] KATAKANA LETTER SA
u+30b5:
0x8354:
    ................
    .........@......
    ....@.....@.....
    .....@....@.....
    .....@...@@@@@..
    .@..@@@@@.@...@.
    ..@@.@....@.....
    .....@....@.....
    .....@....@.....
    .....@....@.....
    .........@......
    .........@......
    ........@.......
    .......@........
    .....@@.........
    ................


# [ザ] KATAKANA LETTER ZA
u+30b6:
0x8355:
    ..............@.
    .........@..@..@
    ....@.....@..@..
    .....@....@.....
    .....@...@@@@@..
    .@..@@@@@.@...@.
    ..@@.@....@.....
    .....@....@.....
    .....@....@.....
    .....@....@.....
    .........@......
    .........@......
    ........@.......
    .......@........
    .....@@.........
    ................


# [シ] KATAKANA LETTER SI
u+30b7:
0x8356:
    ................
    ................
    ....@@..........
    ......@.........
    ................
    ..@@............
    ....@.........@.
    .............@..
    ............@...
    ...........@....
    ..........@.....
    ........@@......
    ..@...@@........
    ...@@@..........
    ................
    ................


# [ジ] KATAKANA LETTER ZI
u+30b8:
0x8357:
    .............@..
    ...........@..@.
    ....@@......@...
    ......@.........
    ................
    ..@@............
    ....@.........@.
    .............@..
    ............@...
    ...........@....
    ..........@.....
    ........@@......
    ..@...@@........
    ...@@@..........
    ................
    ................


# [ス] KATAKANA LETTER SU
u+30b9:
0x8358:
    ................
    ................
    ................
    ...@....@@@@....
    ....@@@@...@....
    ..........@.....
    ..........@.....
    .........@......
    .........@......
    ........@.@.....
    .......@...@....
    ......@.....@...
    ....@@.......@..
    ..@@.........@..
    ................
    ................


# [ズ] KATAKANA LETTER ZU
u+30ba:
0x8359:
    ..............@.
    ............@..@
    .............@..
    ...@....@@@@....
    ....@@@@...@....
    ..........@.....
    ..........@.....
    .........@......
    .........@......
    ........@.@.....
    .......@...@....
    ......@.....@...
    ....@@.......@..
    ..@@.........@..
    ................
    ................


# [セ] KATAKANA LETTER SE
u+30bb:
0x835a:
    ................
    ....@@..........
    .....@@.........
    .....@..........
    .....@.....@@...
    .....@..@@@.@@..
    .@...@@@....@...
    ..@@@@.....@....
    .....@....@.....
    .....@...@......
    .....@..........
    .....@..........
    .....@......@@..
    ......@@@@@@....
    ................
    ................


# [ゼ] KATAKANA LETTER ZE
u+30bc:
0x835b:
    ..............@.
    ....@@......@..@
    .....@@......@..
    .....@..........
    .....@.....@@...
    .....@..@@@.@@..
    .@...@@@....@...
    ..@@@@.....@....
    .....@....@.....
    .....@...@......
    .....@..........
    .....@..........
    .....@......@@..
    ......@@@@@@....
    ................
    ................


# [ソ] KATAKANA LETTER SO
u+30bd:
0x835c:
    ................
    ................
    ................
    ..@........@@...
    ...@........@@..
    ....@.......@...
    ....@......@....
    ...........@....
    ..........@.....
    ..........@.....
    .........@......
    ........@.......
    .......@........
    .....@@.........
    ...@@...........
    ................


# [ゾ] KATAKANA LETTER ZO
u+30be:
0x835d:
    ..............@.
    ............@..@
    .............@..
    ..@........@@...
    ...@........@@..
    ....@.......@...
    ....@......@....
    ...........@....
    ..........@.....
    ..........@.....
    .........@......
    ........@.......
    .......@........
    .....@@.........
    ...@@...........
    ................


# [タ] KATAKANA LETTER TA
u+30bf:
0x835e:
    ................
    ......@@........
    .......@........
    ......@...@@@...
    ......@@@@..@@..
    .....@......@...
    ....@......@....
    ...@.......@....
    ..@....@@.@.....
    .........@@.....
    .........@@@....
    ........@..@....
    .......@........
    .....@@.........
    ...@@...........
    ................


# [ダ] KATAKANA LETTER DA
u+30c0:
0x835f:
    ..............@.
    ......@@....@..@
    .......@.....@..
    ......@...@@@...
    ......@@@@..@@..
    .....@......@...
    ....@......@....
    ...@.......@....
    ..@....@@.@.....
    .........@@.....
    .........@@@....
    ........@..@....
    .......@........
    .....@@.........
    ...@@...........
    ................


# [チ] KATAKANA LETTER TI
u+30c1:
0x8360:
    ................
    ..........@@....
    .......@@@......
    ...@@@@.@.......
    ........@.......
    ........@.......
    .@....@@@@@@@@..
    ..@@@@..@.....@.
    ........@.......
    ........@.......
    .......@........
    .......@........
    ......@.........
    .....@..........
    ...@@...........
    ................


# [ヂ] KATAKANA LETTER DI
u+30c2:
0x8361:
    ................
    ..........@@....
    .......@@@....@.
    ...@@@@.@...@..@
    ........@....@..
    ........@.......
    .@....@@@@@@@@..
    ..@@@@..@.....@.
    ........@.......
    ........@.......
    .......@........
    .......@........
    ......@.........
    .....@..........
    ...@@...........
    ................


# [ッ] KATAKANA LETTER SMALL TU
u+30c3:
0x8362:
    ................
    ................
    ................
    ................
    ................
    ................
    ......@...@@....
    ...@...@...@....
    ....@..@...@....
    ....@......@....
    ..........@.....
    ..........@.....
    .........@......
    .......@@.......
    .....@@.........
    ................


# [ツ] KATAKANA LETTER TU
u+30c4:
0x8363:
    ................
    ................
    ......@.........
    ..@....@....@@..
    ...@...@.....@@.
    ...@.........@..
    ............@...
    ............@...
    ...........@....
    ...........@....
    ..........@.....
    .........@......
    ........@.......
    ......@@........
    ....@@..........
    ................


# [ヅ] KATAKANA LETTER DU
u+30c5:
0x8364:
    ............@.@.
    .............@.@
    ......@.........
    ..@....@....@@..
    ...@...@.....@@.
    ...@.........@..
    ............@...
    ............@...
    ...........@....
    ...........@....
    ..........@.....
    .........@......
    ........@.......
    ......@@........
    ....@@..........
    ................


# [テ] KATAKANA LETTER TE
u+30c6:
0x8365:
    ................
    ................
    ...@....@@@@....
    ....@@@@........
    ................
    ................
    .@...@@@@@@@@@..
    ..@@@...@.....@.
    ........@.......
    ........@.......
    .......@........
    .......@........
    ......@.........
    .....@..........
    ...@@...........
    ................


# [デ] KATAKANA LETTER DE
u+30c7:
0x8366:
    ..............@.
    ............@..@
    ...@....@@@@.@..
    ....@@@@........
    ................
    ................
    .@...@@@@@@@@@..
    ..@@@...@.....@.
    ........@.......
    ........@.......
    .......@........
    .......@........
    ......@.........
    .....@..........
    ...@@...........
    ................


# [ト] KATAKANA LETTER TO
u+30c8:
0x8367:
    ................
    .....@@.........
    ......@@........
    ......@.........
    ......@.........
    ......@.........
    ......@@@.......
    ......@..@@.....
    ......@....@....
    ......@.........
    ......@.........
    ......@.........
    ......@.........
    ......@@........
    ......@.........
    ................


# [ド] KATAKANA LETTER DO
u+30c9:
0x8368:
    ................
    .....@@.....@...
    ......@@..@..@..
    ......@....@....
    ......@.........
    ......@.........
    ......@@@.......
    ......@..@@.....
    ......@....@....
    ......@.........
    ......@.........
    ......@.........
    ......@.........
    ......@@........
    ......@.........
    ................


# [ナ] KATAKANA LETTER NA
u+30ca:
0x8369:
    ................
    .......@@.......
    ........@@......
    ........@.......
    ........@.......
    .@....@@@@@@@@..
    ..@@@@..@.....@.
    ........@.......
    ........@.......
    ........@.......
    .......@........
    .......@........
    ......@.........
    .....@..........
    ....@...........
    ................


# [ニ] KATAKANA LETTER NI
u+30cb:
0x836a:
    ................
    ................
    ................
    ....@....@@.....
    .....@@@@.......
    ................
    ................
    ................
    ................
    ................
    ................
    .@.....@@@@@@@..
    ..@@@@@.......@.
    ................
    ................
    ................


# [ヌ] KATAKANA LETTER NU
u+30cc:
0x836b:
    ................
    ................
    ...@.....@@@....
    ....@@@@@..@@...
    ...........@....
    ..........@.....
    ....@@....@.....
    ......@@.@......
    ........@@......
    ........@.@.....
    .......@...@....
    ......@.....@...
    ....@@......@...
    ..@@............
    ................
    ................


# [ネ] KATAKANA LETTER NE
u+30cd:
0x836c:
    ................
    .......@@.......
    .........@......
    ................
    ....@...@@@@....
    .....@@@..@.....
    .........@......
    ........@.......
    .......@@@.@....
    ......@.@...@@..
    ....@@..@.....@.
    ..@@....@.....@.
    ........@.......
    ........@.......
    ........@.......
    ........@.......


# [ノ] KATAKANA LETTER NO
u+30ce:
0x836d:
    ................
    ................
    ...........@@...
    ............@@..
    ............@...
    ...........@....
    ...........@....
    ..........@.....
    .........@......
    ........@.......
    .......@........
    ......@.........
    ....@@..........
    ..@@............
    ................
    ................


# [ハ] KATAKANA LETTER HA
u+30cf:
0x836e:
    ................
    ................
    ................
    ................
    ....@...........
    .....@.....@....
    .....@......@...
    ....@........@..
    ....@.........@.
    ...@..........@.
    ...@...........@
    ..@............@
    .@.............@
    ................
    ................
    ................


# [バ] KATAKANA LETTER BA
u+30d0:
0x836f:
    ................
    ..............@.
    ............@..@
    .............@..
    ....@...........
    .....@.....@....
    .....@......@...
    ....@........@..
    ....@.........@.
    ...@..........@.
    ...@...........@
    ..@............@
    .@.............@
    ................
    ................
    ................


# [パ] KATAKANA LETTER PA
u+30d1:
0x8370:
    ................
    .............@@.
    ............@..@
    ............@..@
    ....@........@@.
    .....@.....@....
    .....@......@...
    ....@........@..
    ....@.........@.
    ...@..........@.
    ...@...........@
    ..@............@
    .@.............@
    ................
    ................
    ................


# [ヒ] KATAKANA LETTER HI
u+30d2:
0x8371:
    ................
    ................
    ...@@...........
    ....@@..........
    ....@...........
    ....@......@@...
    ....@...@@@.....
    ....@@@@........
    ....@...........
    ....@...........
    ....@...........
    ....@...........
    ....@.......@@..
    .....@@@@@@@....
    ................
    ................


# [ビ] KATAKANA LETTER BI
u+30d3:
0x8372:
    ................
    ..............@.
    ...@@.......@..@
    ....@@.......@..
    ....@...........
    ....@......@@...
    ....@...@@@.....
    ....@@@@........
    ....@...........
    ....@...........
    ....@...........
    ....@...........
    ....@.......@@..
    .....@@@@@@@....
    ................
    ................


# [ピ] KATAKANA LETTER PI
u+30d4:
0x8373:
    ................
    .............@@.
    ...@@.......@..@
    ....@@......@..@
    ....@........@@.
    ....@......@....
    ....@...@@@.....
    ....@@@@........
    ....@...........
    ....@...........
    ....@...........
    ....@...........
    ....@.......@@..
    .....@@@@@@@....
    ................
    ................


# [フ] KATAKANA LETTER HU
u+30d5:
0x8374:
    ................
    ................
    ................
    ..@....@@@@@@...
    ...@@@@.....@@..
    ............@...
    ............@...
    ...........@....
    ...........@....
    ..........@.....
    .........@......
    ........@.......
    ......@@........
    ....@@..........
    ................
    ................


# [ブ] KATAKANA LETTER BU
u+30d6:
0x8375:
    ..............@.
    ............@..@
    .............@..
    ..@....@@@@@@...
    ...@@@@.....@@..
    ............@...
    ............@...
    ...........@....
    ...........@....
    ..........@.....
    .........@......
    ........@.......
    ......@@........
    ....@@..........
    ................
    ................


# [プ] KATAKANA LETTER PU
u+30d7:
0x8376:
    .............@@.
    ............@..@
    ............@..@
    ..@....@@@@@.@@.
    ...@@@@.....@@..
    ............@...
    ............@...
    ...........@....
    ...........@....
    ..........@.....
    .........@......
    ........@.......
    ......@@........
    ....@@..........
    ................
    ................


# [ヘ] KATAKANA LETTER HE
u+30d8:
0x8377:
    ................
    ................
    ................
    ................
    ......@@........
    .....@..@.......
    ....@....@......
    ...@......@.....
    .@@........@....
    .@..........@...
    .............@@.
    ...............@
    ................
    ................
    ................
    ................


# [ベ] KATAKANA LETTER BE
u+30d9:
0x8378:
    ................
    ................
    .............@..
    ...........@..@.
    ......@@....@...
    .....@..@.......
    ....@....@......
    ...@......@.....
    .@@........@....
    .@..........@...
    .............@@.
    ...............@
    ................
    ................
    ................
    ................


# [ペ] KATAKANA LETTER PE
u+30da:
0x8379:
    ................
    ................
    ............@@..
    ...........@..@.
    ......@@...@..@.
    .....@..@...@@..
    ....@....@......
    ...@......@.....
    .@@........@....
    .@..........@...
    .............@@.
    ...............@
    ................
    ................
    ................
    ................


# [ホ] KATAKANA LETTER HO
u+30db:
0x837a:
    ................
    .......@@.......
    ........@@......
    ........@.......
    ..@.....@@@@@@..
    ...@@@@@@.....@.
    ........@.......
    ........@.......
    ....@...@...@...
    ....@...@....@..
    ...@....@.....@.
    ..@.....@.....@.
    ........@.......
    ......@.@.......
    .......@@.......
    ................


# [ボ] KATAKANA LETTER BO
u+30dc:
0x837b:
    ..............@.
    .......@@...@..@
    ........@@...@..
    ........@.......
    ..@.....@@@@@@..
    ...@@@@@@.....@.
    ........@.......
    ........@.......
    ....@...@...@...
    ....@...@....@..
    ...@....@.....@.
    ..@.....@.....@.
    ........@.......
    ......@.@.......
    .......@@.......
    ................


# [ポ] KATAKANA LETTER PO
u+30dd:
0x837c:
    .............@@.
    .......@@...@..@
    ........@@..@..@
    ........@....@@.
    ..@.....@@@@@@..
    ...@@@@@@.....@.
    ........@.......
    ........@.......
    ....@...@...@...
    ....@...@....@..
    ...@....@.....@.
    ..@.....@.....@.
    ........@.......
    ......@.@.......
    .......@@.......
    ................


# [マ] KATAKANA LETTER MA
u+30de:
0x837d:
    ................
    ................
    ................
    ..........@@@@..
    .@...@@@@@...@@.
    ..@@@........@..
    ............@...
    ............@...
    ...........@....
    .....@@...@.....
    .......@.@......
    ........@.......
    .........@......
    .........@......
    ................
    ................


# [ミ] KATAKANA LETTER MI
u+30df:
0x837e:
    ................
    ................
    .....@@@@@......
    ..........@@....
    ................
    ................
    .....@@@@.......
    .........@@.....
    ...........@....
    ................
    ................
    ....@@@@@.......
    .........@@@....
    ............@...
    ................
    ................

0x837f:
    ................
    ................
    ................
    ................
    ................
    ................
    ................
    ................
    ................
    ................
    ................
    ................
    ................
    ................
    ................
    ................


# [ム] KATAKANA LETTER MU
u+30e0:
0x8380:
    ................
    ................
    .......@@.......
    ........@@......
    ........@.......
    .......@........
    .......@........
    .......@........
    ......@....@....
    ......@.....@...
    .....@.......@..
    .....@....@@@@..
    ..@.@@@@@@....@.
    ...@@.........@.
    ................
    ................


# [メ] KATAKANA LETTER ME
u+30e1:
0x8381:
    ................
    ................
    ..........@@....
    ...........@@...
    ...........@....
    ..........@.....
    .....@@...@.....
    .......@.@......
    ........@@......
    ........@.@.....
    .......@...@....
    ......@....@....
    ....@@..........
    ..@@............
    ................
    ................


# [モ] KATAKANA LETTER MO
u+30e2:
0x8382:
    ................
    ................
    ...@....@@@@....
    ....@@@@........
    .......@........
    .......@........
    .......@..@@@@@.
    .@...@@@@@......
    ..@@@..@........
    .......@........
    .......@........
    .......@........
    .......@....@@..
    ........@@@@....
    ................
    ................


# [ャ] KATAKANA LETTER SMALL YA
u+30e3:
0x8383:
    ................
    ................
    ................
    ................
    ................
    ......@.........
    .......@........
    .......@..@@@...
    ...@..@@@@..@...
    ....@@.@...@....
    .......@..@.....
    ........@.......
    ........@.......
    ........@.......
    ........@.......
    ................


# [ヤ] KATAKANA LETTER YA
u+30e4:
0x8384:
    ................
    .....@..........
    ......@.........
    ......@......@..
    ......@...@@@@@.
    .@...@@@@@...@..
    ..@@@..@....@...
    .......@...@....
    .......@..@.....
    .......@........
    ........@.......
    ........@.......
    ........@.......
    ........@.......
    ........@.......
    ................


# [ュ] KATAKANA LETTER SMALL YU
u+30e5:
0x8385:
    ................
    ................
    ................
    ................
    ................
    ................
    ................
    ....@...@@@.....
    .....@@@..@@....
    ..........@.....
    .........@......
    .........@......
    ...@..@@@@@@@...
    ....@@.......@..
    ................
    ................


# [ユ] KATAKANA LETTER YU
u+30e6:
0x8386:
    ................
    ................
    ................
    ...@....@@@.....
    ....@@@@...@....
    ..........@.....
    ..........@.....
    ..........@.....
    .........@......
    .........@......
    .........@......
    .@.....@@@@@@@..
    ..@@@@@.......@.
    ................
    ................
    ................


# [ョ] KATAKANA LETTER SMALL YO
u+30e7:
0x8387:
    ................
    ................
    ................
    ................
    ................
    ................
    ....@..@@@@@....
    .....@@....@@...
    ...........@....
    ....@..@@@@@....
    .....@@...@.....
    ..........@.....
    ....@..@@@@.....
    .....@@....@....
    ................
    ................


# [ヨ] KATAKANA LETTER YO
u+30e8:
0x8388:
    ................
    ................
    ................
    ..@.....@@@@@...
    ...@@@@@....@@..
    ............@...
    ............@...
    ...@....@@@@@...
    ....@@@@...@....
    ...........@....
    ...........@....
    ...........@....
    ..@.....@@@@@...
    ...@@@@@.....@..
    ................
    ................


# [ラ] KATAKANA LETTER RA
u+30e9:
0x8389:
    ................
    ................
    ....@......@@...
    .....@@@@@@.....
    ................
    ................
    ...@.....@@@@@..
    ....@@@@@....@@.
    .............@..
    ............@...
    ............@...
    ...........@....
    ..........@.....
    ........@@......
    .....@@@........
    ................


# [リ] KATAKANA LETTER RI
u+30ea:
0x838a:
    ................
    ..........@.....
    ...@.......@....
    ....@......@....
    ....@......@....
    ....@......@....
    ....@......@....
    ....@......@....
    ....@......@....
    ...........@....
    ..........@.....
    ..........@.....
    .........@......
    .......@@.......
    .....@@.........
    ................


# [ル] KATAKANA LETTER RU
u+30eb:
0x838b:
    ................
    ................
    .......@@.......
    ...@@...@@......
    ....@@..@.......
    ....@...@.......
    ....@...@.......
    ....@...@.......
    ....@...@.....@.
    ....@...@.....@.
    ...@....@....@..
    ...@....@..@@...
    ..@.....@@@.....
    .@..............
    ................
    ................


# [レ] KATAKANA LETTER RE
u+30ec:
0x838c:
    ................
    ................
    ...@@...........
    ....@@..........
    ....@...........
    ....@...........
    ....@...........
    ....@.........@.
    ....@........@..
    ....@.......@...
    ....@......@....
    ....@....@@.....
    ....@..@@.......
    ....@@@.........
    ................
    ................


# [ロ] KATAKANA LETTER RO
u+30ed:
0x838d:
    ................
    ................
    ................
    ..@....@@@@@@...
    ...@@@@.....@@..
    ...@........@...
    ...@........@...
    ...@.......@....
    ...@.......@....
    ...@.......@....
    ...@...@@@@@....
    ..@@@@@.....@...
    ................
    ................
    ................
    ................


# [ヮ] KATAKANA LETTER SMALL WA
u+30ee:
0x838e:
    ................
    ................
    ................
    ................
    ................
    ................
    ...@....@@@@....
    ....@@@@...@@...
    ....@......@....
    ....@......@....
    ....@.....@.....
    ..........@.....
    .........@......
    ........@.......
    ......@@........
    ................


# [ワ] KATAKANA LETTER WA
u+30ef:
0x838f:
    ................
    ................
    ................
    ..@....@@@@@@...
    ...@@@@.....@@..
    ...@........@...
    ...@........@...
    ...@........@...
    ...@........@...
    ...........@....
    ...........@....
    ..........@.....
    .........@......
    .......@@.......
    .....@@.........
    ................


# [ヰ] KATAKANA LETTER WI
u+30f0:
0x8390:
    ................
    .......@@.......
    ........@@......
    ........@.......
    ..@.....@@@@@...
    ...@@@@@@....@..
    ....@...@.......
    ....@...@.......
    .@..@...@@@@@@..
    ..@@@@@@@.....@.
    ........@.......
    ........@.......
    ........@.......
    ........@.......
    ........@.......
    ................


# [ヱ] KATAKANA LETTER WE
u+30f1:
0x8391:
    ................
    ................
    ................
    ..@.....@@@@@...
    ...@@@@@....@@..
    ...........@....
    ......@@..@.....
    .......@@@......
    .......@........
    .......@........
    .......@........
    .@.....@@@@@@@..
    ..@@@@@@......@.
    ................
    ................
    ................


# [ヲ] KATAKANA LETTER WO
u+30f2:
0x8392:
    ................
    ................
    ..@......@@@@...
    ...@@@@@@...@@..
    ............@...
    ............@...
    ..@.....@@@@@...
    ...@@@@@...@....
    ...........@....
    ..........@.....
    ..........@.....
    .........@......
    ........@.......
    ......@@........
    ....@@..........
    ................


# [ン] KATAKANA LETTER N
u+30f3:
0x8393:
    ................
    ................
    ..@.............
    ...@@...........
    .....@........@.
    ..............@.
    .............@..
    .............@..
    ............@...
    ...........@....
    ..........@.....
    ........@@......
    ..@...@@........
    ...@@@..........
    ................
    ................


# [ヴ] KATAKANA LETTER VU
u+30f4:
0x8394:
    ..............@.
    ......@@....@..@
    .......@@....@..
    .......@........
    ..@....@@@@@@...
    ...@@@@@....@@..
    ...@........@...
    ...@........@...
    ...@........@...
    ...........@....
    ...........@....
    ..........@.....
    .........@......
    .......@@.......
    .....@@.........
    ................


# [ヵ] KATAKANA LETTER SMALL KA
u+30f5:
0x8395:
    ................
    ................
    ................
    ................
    ................
    ......@.........
    .......@........
    ...@...@@@@@....
    ....@@@@...@@...
    .......@...@....
    ......@....@....
    ......@....@....
    .....@....@.....
    ....@...@.@.....
    ...@.....@......
    ................


# [ヶ] KATAKANA LETTER SMALL KE
u+30f6:
0x8396:
    ................
    ................
    ................
    ................
    ................
    .....@@.........
    ......@.........
    .....@...@@@....
    .....@@@@@..@...
    ....@....@......
    ...@.....@......
    ........@.......
    ........@.......
    ......@@........
    ....@@..........
    ................

0x8397:
    ................
    ................
    ................
    ................
    ................
    ................
    ................
    ................
    ................
    ................
    ................
    ................
    ................
    ................
    ................
    ................

0x8398:
    ................
    ................
    ................
    ................
    ................
    ................
    ................
    ................
    ................
    ................
    ................
    ................
    ................
    ................
    ................
    ................

0x8399:
    ................
    ................
    ................
    ................
    ................
    ................
    ................
    ................
    ................
    ................
    ................
    ................
    ................
    ................
    ................
    ................

0x839a:
    ................
    ................
    ................
    ................
    ................
    ................
    ................
    ................
    ................
    ................
    ................
    ................
    ................
    ................
    ................
    ................

0x839b:
    ................
    ................
    ................
    ................
    ................
    ................
    ................
    ................
    ................
    ................
    ................
    ................
    ................
    ................
    ................
    ................

0x839c:
    ................
    ................
    ................
    ................
    ................
    ................
    ................
    ................
    ................
    ................
    ................
    ................
    ................
    ................
    ................
    ................

0x839d:
    ................
    ................
    ................
    ................
    ................
    ................
    ................
    ................
    ................
    ................
    ................
    ................
    ................
    ................
    ................
    ................

0x839e:
    ................
    ................
    ................
    ................
    ................
    ................
    ................
    ................
    ................
    ................
    ................
    ................
    ................
    ................
    ................
    ................


# [Α] GREEK CAPITAL LETTER ALPHA
u+0391:
0x839f:
    ................
    ........@.......
    ........@.......
    .......@.@......
    .......@.@......
    ......@...@.....
    ......@...@.....
    ......@...@.....
    .....@.....@....
    .....@.....@....
    ....@@@@@@@@@...
    ....@.......@...
    ....@.......@...
    ...@.........@..
    ..@@@@.....@@@@.
    ................


# [Β] GREEK CAPITAL LETTER BETA
u+0392:
0x83a0:
    ................
    ...@@@@@@@@.....
    ....@......@....
    ....@.......@...
    ....@.......@...
    ....@.......@...
    ....@......@....
    ....@@@@@@@@....
    ....@.......@...
    ....@........@..
    ....@........@..
    ....@........@..
    ....@........@..
    ....@.......@...
    ...@@@@@@@@@....
    ................


# [Γ] GREEK CAPITAL LETTER GAMMA
u+0393:
0x83a1:
    ................
    ....@@@@@@@@@...
    .....@......@...
    .....@......@...
    .....@..........
    .....@..........
    .....@..........
    .....@..........
    .....@..........
    .....@..........
    .....@..........
    .....@..........
    .....@..........
    .....@..........
    ....@@@.........
    ................


# [Δ] GREEK CAPITAL LETTER DELTA
u+0394:
0x83a2:
    ................
    ........@.......
    ........@.......
    .......@.@......
    .......@.@......
    ......@...@.....
    ......@...@.....
    .....@.....@....
    .....@.....@....
    .....@.....@....
    ....@.......@...
    ....@.......@...
    ...@.........@..
    ...@.........@..
    ..@@@@@@@@@@@@@.
    ................


# [Ε] GREEK CAPITAL LETTER EPSILON
u+0395:
0x83a3:
    ................
    ...@@@@@@@@@@...
    ....@.......@...
    ....@.......@...
    ....@...........
    ....@.....@.....
    ....@.....@.....
    ....@@@@@@@.....
    ....@.....@.....
    ....@.....@.....
    ....@...........
    ....@...........
    ....@........@..
    ....@........@..
    ...@@@@@@@@@@@..
    ................


# [Ζ] GREEK CAPITAL LETTER ZETA
u+0396:
0x83a4:
    ................
    ...@@@@@@@@@@...
    ...@.......@....
    ...@......@.....
    ..........@.....
    .........@......
    ........@.......
    ........@.......
    .......@........
    ......@.........
    ......@.........
    .....@..........
    ....@.......@...
    ....@.......@...
    ...@@@@@@@@@@...
    ................


# [Η] GREEK CAPITAL LETTER ETA
u+0397:
0x83a5:
    ................
    ..@@@......@@@..
    ...@........@...
    ...@........@...
    ...@........@...
    ...@........@...
    ...@........@...
    ...@@@@@@@@@@...
    ...@........@...
    ...@........@...
    ...@........@...
    ...@........@...
    ...@........@...
    ...@........@...
    ..@@@......@@@..
    ................


# [Θ] GREEK CAPITAL LETTER THETA
u+0398:
0x83a6:
    ................
    ......@@@@......
    ....@@....@@....
    ...@........@...
    ...@........@...
    ..@..........@..
    ..@..@....@..@..
    ..@..@@@@@@..@..
    ..@..@....@..@..
    ..@..........@..
    ..@..........@..
    ...@........@...
    ...@........@...
    ....@@....@@....
    ......@@@@......
    ................


# [Ι] GREEK CAPITAL LETTER IOTA
u+0399:
0x83a7:
    ................
    .......@@@......
    ........@.......
    ........@.......
    ........@.......
    ........@.......
    ........@.......
    ........@.......
    ........@.......
    ........@.......
    ........@.......
    ........@.......
    ........@.......
    ........@.......
    .......@@@......
    ................


# [Κ] GREEK CAPITAL LETTER KAPPA
u+039a:
0x83a8:
    ................
    ...@@@....@@@...
    ....@......@....
    ....@.....@.....
    ....@....@......
    ....@...@.......
    ....@..@........
    ....@.@.@.......
    ....@@..@.......
    ....@....@......
    ....@.....@.....
    ....@.....@.....
    ....@......@....
    ....@.......@...
    ...@@@.....@@@..
    ................


# [Λ] GREEK CAPITAL LETTER LAMDA
u+039b:
0x83a9:
    ................
    ........@.......
    ........@.......
    .......@.@......
    .......@.@......
    ......@...@.....
    ......@...@.....
    ......@...@.....
    .....@.....@....
    .....@.....@....
    ....@.......@...
    ....@.......@...
    ....@.......@...
    ...@.........@..
    ..@@@@.....@@@@.
    ................


# [Μ] GREEK CAPITAL LETTER MU
u+039c:
0x83aa:
    ................
    ..@@@.......@@@.
    ...@@.......@@..
    ...@.@.....@.@..
    ...@.@.....@.@..
    ...@.@.....@.@..
    ...@..@...@..@..
    ...@..@...@..@..
    ...@..@...@..@..
    ...@...@.@...@..
    ...@...@.@...@..
    ...@...@.@...@..
    ...@....@....@..
    ...@....@....@..
    ..@@@.......@@@.
    ................


# [Ν] GREEK CAPITAL LETTER NU
u+039d:
0x83ab:
    ................
    ..@@.......@@@..
    ...@@.......@...
    ...@@.......@...
    ...@.@......@...
    ...@..@.....@...
    ...@..@.....@...
    ...@...@....@...
    ...@....@...@...
    ...@.....@..@...
    ...@.....@..@...
    ...@......@.@...
    ...@.......@@...
    ...@.......@@...
    ..@@@.......@...
    ................


# [Ξ] GREEK CAPITAL LETTER XI
u+039e:
0x83ac:
    ................
    ...@@@@@@@@@@@..
    ...@.........@..
    ..@.........@...
    ................
    ................
    ....@.......@...
    ....@@@@@@@@....
    ...@.......@....
    ................
    ................
    ................
    ...@.........@..
    ..@.........@...
    ..@@@@@@@@@@@...
    ................


# [Ο] GREEK CAPITAL LETTER OMICRON
u+039f:
0x83ad:
    ................
    ......@@@@......
    ....@@....@@....
    ...@........@...
    ...@........@...
    ..@..........@..
    ..@..........@..
    ..@..........@..
    ..@..........@..
    ..@..........@..
    ..@..........@..
    ...@........@...
    ...@........@...
    ....@@....@@....
    ......@@@@......
    ................


# [Π] GREEK CAPITAL LETTER PI
u+03a0:
0x83ae:
    ................
    ..@@@@@@@@@@@@..
    ...@........@...
    ...@........@...
    ...@........@...
    ...@........@...
    ...@........@...
    ...@........@...
    ...@........@...
    ...@........@...
    ...@........@...
    ...@........@...
    ...@........@...
    ...@........@...
    ..@@@......@@@..
    ................


# [Ρ] GREEK CAPITAL LETTER RHO
u+03a1:
0x83af:
    ................
    ...@@@@@@@@@....
    ....@.......@...
    ....@........@..
    ....@........@..
    ....@........@..
    ....@.......@...
    ....@@@@@@@@....
    ....@...........
    ....@...........
    ....@...........
    ....@...........
    ....@...........
    ....@...........
    ...@@@..........
    ................


# [Σ] GREEK CAPITAL LETTER SIGMA
u+03a3:
0x83b0:
    ................
    ...@@@@@@@@@@...
    ....@........@..
    .....@..........
    ......@.........
    .......@........
    ........@.......
    .........@......
    .........@......
    ........@.......
    .......@........
    ......@.........
    .....@..........
    ....@........@..
    ...@@@@@@@@@@...
    ................


# [Τ] GREEK CAPITAL LETTER TAU
u+03a4:
0x83b1:
    ................
    ...@@@@@@@@@@@..
    ...@....@....@..
    ..@.....@.....@.
    ........@.......
    ........@.......
    ........@.......
    ........@.......
    ........@.......
    ........@.......
    ........@.......
    ........@.......
    ........@.......
    ........@.......
    .......@@@......
    ................


# [Υ] GREEK CAPITAL LETTER UPSILON
u+03a5:
0x83b2:
    ................
    ....@@.....@@...
    ...@..@...@..@..
    ..@....@@@....@.
    ........@.......
    ........@.......
    ........@.......
    ........@.......
    ........@.......
    ........@.......
    ........@.......
    ........@.......
    ........@.......
    ........@.......
    .......@@@......
    ................


# [Φ] GREEK CAPITAL LETTER PHI
u+03a6:
0x83b3:
    ................
    .......@@@......
    ........@.......
    ........@.......
    ......@@@@@.....
    ....@@..@..@@...
    ...@....@....@..
    ...@....@....@..
    ...@....@....@..
    ...@....@....@..
    ....@@..@..@@...
    ......@@@@@.....
    ........@.......
    ........@.......
    .......@@@......
    ................


# [Χ] GREEK CAPITAL LETTER CHI
u+03a7:
0x83b4:
    ................
    ..@@@@....@@@@..
    ....@......@....
    ....@......@....
    .....@....@.....
    ......@..@......
    ......@..@......
    .......@@.......
    .......@@.......
    ......@..@......
    ......@..@......
    .....@....@.....
    ....@......@....
    ....@......@....
    ..@@@@....@@@@..
    ................


# [Ψ] GREEK CAPITAL LETTER PSI
u+03a8:
0x83b5:
    ................
    .......@@@......
    ..@@....@....@@.
    .@..@...@...@..@
    ....@...@...@...
    ....@...@...@...
    ....@...@...@...
    ....@...@...@...
    ....@...@...@...
    .....@..@..@....
    ......@@@@@.....
    ........@.......
    ........@.......
    ........@.......
    .......@@@......
    ................


# [Ω] GREEK CAPITAL LETTER OMEGA
u+03a9:
0x83b6:
    ................
    ......@@@@......
    ....@@....@@....
    ...@........@...
    ...@........@...
    ..@..........@..
    ..@..........@..
    ..@..........@..
    ..@..........@..
    ...@........@...
    ...@@......@@...
    .....@@..@@.....
    ..@...@..@...@..
    ..@...@..@...@..
    ..@@@@@..@@@@@..
    ................

0x83b7:
    ................
    ................
    ................
    ................
    ................
    ................
    ................
    ................
    ................
    ................
    ................
    ................
    ................
    ................
    ................
    ................

0x83b8:
    ................
    ................
    ................
    ................
    ................
    ................
    ................
    ................
    ................
    ................
    ................
    ................
    ................
    ................
    ................
    ................

0x83b9:
    ................
    ................
    ................
    ................
    ................
    ................
    ................
    ................
    ................
    ................
    ................
    ................
    ................
    ................
    ................
    ................

0x83ba:
    ................
    ................
    ................
    ................
    ................
    ................
    ................
    ................
    ................
    ................
    ................
    ................
    ................
    ................
    ................
    ................

0x83bb:
    ................
    ................
    ................
    ................
    ................
    ................
    ................
    ................
    ................
    ................
    ................
    ................
    ................
    ................
    ................
    ................

0x83bc:
    ................
    ................
    ................
    ................
    ................
    ................
    ................
    ................
    ................
    ................
    ................
    ................
    ................
    ................
    ................
    ................

0x83bd:
    ................
    ................
    ................
    ................
    ................
    ................
    ................
    ................
    ................
    ................
    ................
    ................
    ................
    ................
    ................
    ................

0x83be:
    ................
    ................
    ................
    ................
    ................
    ................
    ................
    ................
    ................
    ................
    ................
    ................
    ................
    ................
    ................
    ................


# [α] GREEK SMALL LETTER ALPHA
u+03b1:
0x83bf:
    ................
    ................
    ................
    ................
    ................
    .......@@.......
    .....@@..@..@...
    ....@.....@.@...
    ....@.....@.@...
    ...@......@@....
    ...@......@@....
    ...@......@.....
    ...@.....@@.....
    ....@..@@.@..@..
    .....@@....@@...
    ................


# [β] GREEK SMALL LETTER BETA
u+03b2:
0x83c0:
    ................
    ........@@@.....
    .......@...@....
    ......@.....@...
    ......@.....@...
    .....@.....@....
    .....@....@.....
    .....@..@@......
    ....@.....@.....
    ....@......@....
    ....@......@....
    ....@......@....
    ...@..@...@.....
    ...@...@@@......
    ...@............
    ...@............


# [γ] GREEK SMALL LETTER GAMMA
u+03b3:
0x83c1:
    ................
    ................
    ................
    ................
    ................
    ....@@@.....@@..
    ...@...@..@@....
    ........@.@.....
    ........@@......
    ........@.......
    ........@.......
    .......@........
    .......@........
    .......@........
    ......@.........
    ......@.........


# [δ] GREEK SMALL LETTER DELTA
u+03b4:
0x83c2:
    ................
    .......@@@......
    ......@...@.....
    ......@....@....
    .......@....@...
    ........@.......
    .........@......
    ......@@..@.....
    .....@.....@....
    ....@......@....
    ....@......@....
    ....@......@....
    ....@.....@.....
    .....@...@......
    ......@@@.......
    ................


# [ε] GREEK SMALL LETTER EPSILON
u+03b5:
0x83c3:
    ................
    ................
    ................
    ................
    ................
    ......@@@@......
    .....@....@.....
    .....@..........
    ......@.........
    ......@@@.......
    .....@..........
    ....@...........
    ....@......@....
    .....@....@.....
    ......@@@@......
    ................


# [ζ] GREEK SMALL LETTER ZETA
u+03b6:
0x83c4:
    ................
    .......@@.......
    ......@.........
    ......@...@@@...
    .......@.@@.....
    .......@@.......
    ......@.........
    .....@..........
    ....@...........
    ....@...........
    ....@...........
    .....@@.........
    .......@@@......
    ..........@.....
    ..........@.....
    ......@@@@......


# [η] GREEK SMALL LETTER ETA
u+03b7:
0x83c5:
    ................
    ................
    ................
    ................
    ................
    .....@@..@@@....
    ....@..@@...@...
    .......@....@...
    .......@....@...
    ......@.....@...
    ......@....@....
    ......@....@....
    .....@.....@....
    .....@....@.....
    ..........@.....
    ..........@.....


# [θ] GREEK SMALL LETTER THETA
u+03b8:
0x83c6:
    ................
    ........@@@.....
    .......@...@....
    ......@....@....
    ......@....@....
    .....@.....@....
    .....@.....@....
    .....@@@@@@@....
    ....@.....@.....
    ....@.....@.....
    ....@.....@.....
    ....@....@......
    ....@....@......
    ....@...@.......
    .....@@@........
    ................


# [ι] GREEK SMALL LETTER IOTA
u+03b9:
0x83c7:
    ................
    ................
    ................
    ................
    ................
    .......@........
    .......@........
    .......@........
    ......@.........
    ......@.........
    ......@.........
    .....@..........
    .....@.....@....
    .....@....@.....
    ......@@@@......
    ................


# [κ] GREEK SMALL LETTER KAPPA
u+03ba:
0x83c8:
    ................
    ................
    ................
    ................
    ................
    ......@.........
    ......@....@@...
    ......@...@.....
    ......@..@......
    .....@@@@.......
    .....@...@......
    .....@...@......
    .....@...@......
    ....@....@..@...
    ....@.....@@....
    ................


# [λ] GREEK SMALL LETTER LAMDA
u+03bb:
0x83c9:
    ................
    ......@@........
    ........@.......
    .........@......
    .........@......
    .........@......
    ........@@......
    ........@@......
    .......@.@......
    ......@...@.....
    ......@...@.....
    .....@....@.....
    .....@....@.....
    ....@......@....
    ....@.......@@..
    ................


# [μ] GREEK SMALL LETTER MU
u+03bc:
0x83ca:
    ................
    ................
    ................
    ................
    ................
    ......@....@....
    ......@....@....
    ......@....@....
    .....@....@.....
    .....@....@.....
    .....@....@.....
    ....@....@......
    ....@@..@@..@...
    ....@.@@..@@....
    ...@............
    ...@............


# [ν] GREEK SMALL LETTER NU
u+03bd:
0x83cb:
    ................
    ................
    ................
    ................
    ................
    .....@......@...
    ......@.....@...
    ......@.....@...
    ......@.....@...
    ......@....@....
    ......@....@....
    ......@...@.....
    .....@...@......
    .....@.@@.......
    .....@@.........
    ................


# [ξ] GREEK SMALL LETTER XI
u+03be:
0x83cc:
    ................
    .........@@.....
    ........@.......
    ........@.......
    .......@@@@@....
    ......@.........
    ......@.........
    .......@........
    .....@@@@@@@....
    ....@...........
    ....@...........
    .....@..........
    ......@@@.......
    .........@@.....
    ...........@....
    .......@@@@.....


# [ο] GREEK SMALL LETTER OMICRON
u+03bf:
0x83cd:
    ................
    ................
    ................
    ................
    ................
    .......@@@@.....
    ......@....@....
    .....@......@...
    .....@......@...
    ....@.......@...
    ....@.......@...
    ....@......@....
    ....@......@....
    .....@....@.....
    ......@@@@......
    ................


# [π] GREEK SMALL LETTER PI
u+03c0:
0x83ce:
    ................
    ................
    ................
    ................
    ................
    ....@@@@@@@@@@..
    ...@..@...@.....
    ......@...@.....
    ......@...@.....
    ......@...@.....
    .....@...@......
    .....@...@......
    .....@...@...@..
    ....@....@..@...
    ...@......@@....
    ................


# [ρ] GREEK SMALL LETTER RHO
u+03c1:
0x83cf:
    ................
    ................
    ................
    ................
    ................
    ........@@@.....
    .......@...@....
    ......@.....@...
    ......@.....@...
    .....@......@...
    .....@......@...
    .....@.....@....
    ....@.@...@.....
    ....@..@@@......
    ....@...........
    ....@...........


# [σ] GREEK SMALL LETTER SIGMA
u+03c3:
0x83d0:
    ................
    ................
    ................
    ................
    .............@..
    ......@@@@@@@...
    .....@....@.....
    ....@......@....
    ....@......@....
    ...@.......@....
    ...@.......@....
    ...@......@.....
    ...@......@.....
    ....@....@......
    .....@@@@.......
    ................


# [τ] GREEK SMALL LETTER TAU
u+03c4:
0x83d1:
    ................
    ................
    ................
    ................
    ................
    .....@@@@@@@@...
    ....@...@.......
    ........@.......
    .......@........
    .......@........
    .......@........
    ......@.........
    ......@...@.....
    ......@..@......
    .......@@.......
    ................


# [υ] GREEK SMALL LETTER UPSILON
u+03c5:
0x83d2:
    ................
    ................
    ................
    ................
    ................
    .....@....@.....
    .....@.....@....
    .....@.....@....
    .....@.....@....
    .....@.....@....
    .....@....@.....
    ....@.....@.....
    ....@....@......
    ....@..@@.......
    .....@@.........
    ................


# [φ] GREEK SMALL LETTER PHI
u+03c6:
0x83d3:
    ................
    ................
    .........@......
    .........@......
    ........@.......
    ......@@@@@.....
    .....@..@..@....
    ....@...@...@...
    ...@....@...@...
    ...@...@....@...
    ...@...@...@....
    ....@..@..@.....
    .....@@@@@......
    .......@........
    ......@.........
    ......@.........


# [χ] GREEK SMALL LETTER CHI
u+03c7:
0x83d4:
    ................
    ................
    ................
    ................
    ................
    .....@@.....@...
    ....@..@...@....
    ...@....@.@.....
    ........@@......
    ........@.......
    .......@@.......
    .......@@.......
    ......@.@.......
    .....@..@.......
    ....@...@..@....
    ...@.....@@.....


# [ψ] GREEK SMALL LETTER PSI
u+03c8:
0x83d5:
    ................
    ................
    .........@......
    .........@......
    .........@......
    ....@@...@..@...
    ...@.@...@...@..
    .....@..@....@..
    ....@...@....@..
    ....@...@....@..
    ....@...@...@...
    .....@..@..@@...
    ......@@@@@.....
    .......@........
    .......@........
    .......@........


# [ω] GREEK SMALL LETTER OMEGA
u+03c9:
0x83d6:
    ................
    ................
    ................
    ................
    ................
    .....@.....@....
    ....@.......@...
    ...@.........@..
    ...@....@....@..
    ..@.....@....@..
    ..@.....@....@..
    ..@....@.....@..
    ..@....@....@...
    ...@..@.@..@@...
    ....@@...@@.....
    ................

0x83d7:
    ................
    ................
    ................
    ................
    ................
    ................
    ................
    ................
    ................
    ................
    ................
    ................
    ................
    ................
    ................
    ................

0x83d8:
    ................
    ................
    ................
    ................
    ................
    ................
    ................
    ................
    ................
    ................
    ................
    ................
    ................
    ................
    ................
    ................

0x83d9:
    ................
    ................
    ................
    ................
    ................
    ................
    ................
    ................
    ................
    ................
    ................
    ................
    ................
    ................
    ................
    ................

0x83da:
    ................
    ................
    ................
    ................
    ................
    ................
    ................
    ................
    ................
    ................
    ................
    ................
    ................
    ................
    ................
    ................

